<?xml version="1.0" encoding="UTF-8"?>
<svg version="1.1" xmlns="http://www.w3.org/2000/svg" width="500" height="500">
<path d="M0 0 C0.85851562 0.6290625 1.71703125 1.258125 2.6015625 1.90625 C2.6015625 2.56625 2.6015625 3.22625 2.6015625 3.90625 C3.18550781 4.17566406 3.76945312 4.44507813 4.37109375 4.72265625 C12.4833675 9.02741798 18.05033232 16.83156192 23.6015625 23.90625 C24.93377508 25.57381265 26.26676319 27.24075717 27.6015625 28.90625 C28.20742187 28.08382812 28.81328125 27.26140625 29.4375 26.4140625 C40.84492392 11.12360304 54.33614666 -2.44028135 72.6015625 -9.09375 C73.65601563 -9.48433594 74.71046875 -9.87492187 75.796875 -10.27734375 C92.19556359 -15.67508977 109.4306337 -14.05554861 125.0390625 -6.78125 C132.02406537 -2.95948917 138.19768002 2.07574522 143.6015625 7.90625 C144.39820313 8.72996094 144.39820313 8.72996094 145.2109375 9.5703125 C160.20737253 25.69479795 163.17993698 43.4531103 162.69921875 64.55664062 C162.49549625 69.45820402 161.69424795 74.13439581 160.6015625 78.90625 C160.32699219 80.27136719 160.32699219 80.27136719 160.046875 81.6640625 C155.30568398 103.14575516 144.57461634 123.31846194 131.6015625 140.90625 C130.92222656 141.85886719 130.24289062 142.81148437 129.54296875 143.79296875 C119.57354475 157.72684206 108.46038759 170.78709918 96.88671875 183.40625 C92.72046683 187.96420081 88.65214384 192.58862821 84.7890625 197.40625 C84.0671875 198.23125 83.3453125 199.05625 82.6015625 199.90625 C81.9415625 199.90625 81.2815625 199.90625 80.6015625 199.90625 C80.33351807 200.50099121 80.06547363 201.09573242 79.78930664 201.70849609 C78.59176551 203.92437796 77.39837267 205.32704528 75.59765625 207.0703125 C74.73430664 207.91722656 74.73430664 207.91722656 73.85351562 208.78125 C73.25474609 209.35875 72.65597656 209.93625 72.0390625 210.53125 C70.84806866 211.68785151 69.65916245 212.84660778 68.47265625 214.0078125 C67.94599365 214.51650879 67.41933105 215.02520508 66.87670898 215.54931641 C65.4851408 216.90025105 65.4851408 216.90025105 64.6015625 218.90625 C63.9415625 218.90625 63.2815625 218.90625 62.6015625 218.90625 C62.6015625 219.56625 62.6015625 220.22625 62.6015625 220.90625 C61.9415625 220.90625 61.2815625 220.90625 60.6015625 220.90625 C60.33351807 221.50099121 60.06547363 222.09573242 59.78930664 222.70849609 C58.59176551 224.92437796 57.39837267 226.32704528 55.59765625 228.0703125 C54.73430664 228.91722656 54.73430664 228.91722656 53.85351562 229.78125 C53.25474609 230.35875 52.65597656 230.93625 52.0390625 231.53125 C50.84806866 232.68785151 49.65916245 233.84660778 48.47265625 235.0078125 C47.94599365 235.51650879 47.41933105 236.02520508 46.87670898 236.54931641 C45.4851408 237.90025105 45.4851408 237.90025105 44.6015625 239.90625 C43.9415625 239.90625 43.2815625 239.90625 42.6015625 239.90625 C42.6015625 240.56625 42.6015625 241.22625 42.6015625 241.90625 C41.9415625 241.90625 41.2815625 241.90625 40.6015625 241.90625 C40.6015625 242.56625 40.6015625 243.22625 40.6015625 243.90625 C39.9415625 243.90625 39.2815625 243.90625 38.6015625 243.90625 C38.6015625 244.56625 38.6015625 245.22625 38.6015625 245.90625 C37.9415625 245.90625 37.2815625 245.90625 36.6015625 245.90625 C36.6015625 246.56625 36.6015625 247.22625 36.6015625 247.90625 C35.9415625 247.90625 35.2815625 247.90625 34.6015625 247.90625 C34.3334375 248.504375 34.0653125 249.1025 33.7890625 249.71875 C32.56044997 251.98198361 31.71124904 253.42165577 29.6015625 254.90625 C26.73719472 254.98366535 25.16497019 254.36335435 22.9453125 252.5625 C21.38822108 251.06416675 19.92237585 249.61740681 18.6015625 247.90625 C18.6015625 247.24625 18.6015625 246.58625 18.6015625 245.90625 C17.9415625 245.90625 17.2815625 245.90625 16.6015625 245.90625 C16.6015625 245.24625 16.6015625 244.58625 16.6015625 243.90625 C15.9415625 243.90625 15.2815625 243.90625 14.6015625 243.90625 C14.6015625 243.24625 14.6015625 242.58625 14.6015625 241.90625 C13.9415625 241.90625 13.2815625 241.90625 12.6015625 241.90625 C12.6015625 241.24625 12.6015625 240.58625 12.6015625 239.90625 C12.03695312 239.68066406 11.47234375 239.45507812 10.890625 239.22265625 C7.95285125 237.53318568 6.18291247 235.40798617 3.9765625 232.84375 C1.17064159 229.38973875 1.17064159 229.38973875 -2.3984375 226.90625 C-2.3984375 226.24625 -2.3984375 225.58625 -2.3984375 224.90625 C-3.0584375 224.90625 -3.7184375 224.90625 -4.3984375 224.90625 C-4.3984375 224.24625 -4.3984375 223.58625 -4.3984375 222.90625 C-5.0584375 222.90625 -5.7184375 222.90625 -6.3984375 222.90625 C-7.84375 221.4375 -7.84375 221.4375 -9.5234375 219.40625 C-12.04101652 216.43947639 -14.62012726 213.63050751 -17.3984375 210.90625 C-20.49261139 207.85325333 -23.36663804 204.69560698 -26.19140625 201.39453125 C-28.0761373 199.26962208 -29.99665902 197.19879624 -31.94921875 195.13671875 C-32.58649902 194.46261963 -33.2237793 193.78852051 -33.88037109 193.09399414 C-35.17479625 191.72862608 -36.47325184 190.36706676 -37.77587891 189.00952148 C-38.37190918 188.37989502 -38.96793945 187.75026855 -39.58203125 187.1015625 C-40.12400146 186.53453613 -40.66597168 185.96750977 -41.22436523 185.38330078 C-42.3984375 183.90625 -42.3984375 183.90625 -42.3984375 181.90625 C-43.0584375 181.90625 -43.7184375 181.90625 -44.3984375 181.90625 C-45.83393476 180.31290761 -47.19671077 178.65373918 -48.5234375 176.96875 C-51.31217002 173.47619452 -54.11676196 170.06449011 -57.1484375 166.78125 C-75.65907421 146.09938553 -92.22539759 121.21001428 -101.3984375 94.90625 C-101.77613281 93.82730469 -102.15382813 92.74835938 -102.54296875 91.63671875 C-109.71918729 68.97921977 -110.92915934 45.44173196 -100.5859375 23.59375 C-97.72183022 18.19490777 -94.43173414 13.48954164 -90.3984375 8.90625 C-89.75390625 8.15601563 -89.109375 7.40578125 -88.4453125 6.6328125 C-79.13371524 -3.47199489 -67.54891503 -8.77803131 -54.3984375 -12.09375 C-53.77710938 -12.28453125 -53.15578125 -12.4753125 -52.515625 -12.671875 C-33.77899871 -16.40537249 -15.70242936 -9.67414039 0 0 Z " fill="#BA54F4" transform="translate(224.3984375,129.09375)"/>
<path d="M0 0 C5.0975062 3.5649762 9.76641868 7.43218858 14 12 C14.54269531 12.57234375 15.08539063 13.1446875 15.64453125 13.734375 C24.09567754 22.94041671 27.96021019 30.30705029 28 43 C28.66 43 29.32 43 30 43 C30.92151124 49.24579839 31.15188368 55.31629554 31.125 61.625 C31.12886719 62.54023438 31.13273438 63.45546875 31.13671875 64.3984375 C31.13000255 69.04605003 30.95675721 73.42882664 30 78 C29.34 78 28.68 78 28 78 C28.02094727 77.26064209 28.04189453 76.52128418 28.06347656 75.75952148 C28.65100931 55.51913254 28.65100931 55.51913254 24 36 C20.74124925 37.41464984 20.74124925 37.41464984 18.75 40.3125 C17.99488274 43.01833686 17.8404045 45.20707882 18 48 C17.34 47.67 16.68 47.34 16 47 C15.5859375 44.71484375 15.5859375 44.71484375 15.375 41.9375 C15.26285156 40.55884766 15.26285156 40.55884766 15.1484375 39.15234375 C15.09945312 38.44207031 15.05046875 37.73179687 15 37 C14.34 37 13.68 37 13 37 C13 35.68 13 34.36 13 33 C12.34 33 11.68 33 11 33 C10.566875 32.05125 10.13375 31.1025 9.6875 30.125 C5.36688475 22.53682267 -2.14955671 16.56627807 -10 13 C-10 12.34 -10 11.68 -10 11 C-10.86625 10.896875 -11.7325 10.79375 -12.625 10.6875 C-16 10 -16 10 -18.73681641 8.4753418 C-22.61397579 6.72241091 -25.34420844 6.6561305 -29.5859375 6.70703125 C-30.28772125 6.71127609 -30.989505 6.71552094 -31.71255493 6.71989441 C-33.9337756 6.73656401 -36.15405788 6.77419128 -38.375 6.8125 C-39.88930973 6.82756212 -41.40363381 6.84124784 -42.91796875 6.85351562 C-46.61227932 6.88642817 -50.30604793 6.93812741 -54 7 C-54 7.66 -54 8.32 -54 9 C-54.65226562 9.31453125 -55.30453125 9.6290625 -55.9765625 9.953125 C-61.90453043 12.84224506 -61.90453043 12.84224506 -67.5 16.3125 C-70 18 -70 18 -72 18 C-72 18.66 -72 19.32 -72 20 C-72.66 20 -73.32 20 -74 20 C-74 20.66 -74 21.32 -74 22 C-75.63474288 23.36228574 -77.27146817 24.72226111 -78.91796875 26.0703125 C-82.13676445 29.05358656 -84.67182569 32.52160671 -87.30078125 36.0234375 C-87.86152344 36.67570312 -88.42226563 37.32796875 -89 38 C-89.66 38 -90.32 38 -91 38 C-91.2475 38.70125 -91.495 39.4025 -91.75 40.125 C-93.17180238 43.39514548 -94.87246288 46.141122 -97 49 C-97.66 49 -98.32 49 -99 49 C-99.66 51.31 -100.32 53.62 -101 56 C-104 55 -104 55 -105.32421875 52.8125 C-105.99904297 51.4203125 -105.99904297 51.4203125 -106.6875 50 C-108.80698357 45.8987993 -110.99030696 42.70149129 -114.1875 39.375 C-118.0529079 35.28786698 -119.76329303 31.44924008 -121 26 C-121.99 26 -122.98 26 -124 26 C-124 25.01 -124 24.02 -124 23 C-124.66 22.67 -125.32 22.34 -126 22 C-124.37660195 20.29115995 -122.70680947 18.62553283 -121 17 C-120.34 17 -119.68 17 -119 17 C-119 17.66 -119 18.32 -119 19 C-118.34 19 -117.68 19 -117 19 C-117 19.99 -117 20.98 -117 22 C-116.34 22 -115.68 22 -115 22 C-115 22.66 -115 23.32 -115 24 C-114.34 24 -113.68 24 -113 24 C-111.9935725 25.66279327 -110.99414593 27.32983484 -110 29 C-109.01 29.66 -108.02 30.32 -107 31 C-107 31.66 -107 32.32 -107 33 C-104.69954754 33.49284561 -104.69954754 33.49284561 -102 33 C-100.19097962 31.06024369 -98.79208804 29.29239816 -97.3125 27.125 C-87.00907112 12.9876029 -73.62926182 1.05747349 -57 -5 C-55.94554687 -5.39058594 -54.89109375 -5.78117187 -53.8046875 -6.18359375 C-36.1670094 -11.98916205 -15.84703209 -10.02172935 0 0 Z " fill="#B347F3" transform="translate(354,125)"/>
<path d="M0 0 C5.0975062 3.5649762 9.76641868 7.43218858 14 12 C14.54269531 12.57234375 15.08539063 13.1446875 15.64453125 13.734375 C24.09567754 22.94041671 27.96021019 30.30705029 28 43 C28.66 43 29.32 43 30 43 C30.92151124 49.24579839 31.15188368 55.31629554 31.125 61.625 C31.12886719 62.54023438 31.13273437 63.45546875 31.13671875 64.3984375 C31.13000255 69.04605003 30.95675721 73.42882664 30 78 C29.34 78 28.68 78 28 78 C28.0314209 76.89096313 28.0314209 76.89096313 28.06347656 75.75952148 C28.65100931 55.51913254 28.65100931 55.51913254 24 36 C20.74124925 37.41464984 20.74124925 37.41464984 18.75 40.3125 C17.99488274 43.01833686 17.8404045 45.20707882 18 48 C17.34 47.67 16.68 47.34 16 47 C15.5859375 44.71484375 15.5859375 44.71484375 15.375 41.9375 C15.26285156 40.55884766 15.26285156 40.55884766 15.1484375 39.15234375 C15.09945312 38.44207031 15.05046875 37.73179687 15 37 C14.34 37 13.68 37 13 37 C13 35.68 13 34.36 13 33 C12.34 33 11.68 33 11 33 C10.443125 31.948125 9.88625 30.89625 9.3125 29.8125 C7.79015762 27.11156996 6.50440101 25.50440101 4.25 23.25 C3.5075 22.5075 2.765 21.765 2 21 C2 20.01 2 19.02 2 18 C1.505 17.505 1.01 17.01 0.5 16.5 C0.005 16.005 -0.49 15.51 -1 15 C-1 14.01 -1 13.02 -1 12 C-2.65 11.67 -4.3 11.34 -6 11 C-6 10.01 -6 9.02 -6 8 C-7.32 7.34 -8.64 6.68 -10 6 C-10 5.34 -10 4.68 -10 4 C-12.475 3.505 -12.475 3.505 -15 3 C-15 2.34 -15 1.68 -15 1 C-16.65 1.66 -18.3 2.32 -20 3 C-20.495 2.505 -20.495 2.505 -21 2 C-22.155 1.835 -23.31 1.67 -24.5 1.5 C-28 1 -28 1 -29 0 C-30.54955559 -0.09899523 -32.10353673 -0.13079524 -33.65625 -0.1328125 C-35.06583984 -0.13474609 -35.06583984 -0.13474609 -36.50390625 -0.13671875 C-37.49261719 -0.13285156 -38.48132813 -0.12898438 -39.5 -0.125 C-40.48871094 -0.12886719 -41.47742188 -0.13273437 -42.49609375 -0.13671875 C-43.43582031 -0.13542969 -44.37554687 -0.13414063 -45.34375 -0.1328125 C-46.64602539 -0.13112061 -46.64602539 -0.13112061 -47.97460938 -0.12939453 C-49.99604154 -0.2241537 -49.99604154 -0.2241537 -51 1 C-53.67058851 1.14115161 -56.32432238 1.04247107 -59 1 C-59 0.34 -59 -0.32 -59 -1 C-57.824375 -1.12375 -57.824375 -1.12375 -56.625 -1.25 C-55.75875 -1.4975 -54.8925 -1.745 -54 -2 C-53.68933594 -2.639375 -53.37867188 -3.27875 -53.05859375 -3.9375 C-52 -6 -52 -6 -48.4375 -7.75 C-32.87930967 -12.26287251 -13.52106199 -8.55077614 0 0 Z " fill="#A740E8" transform="translate(354,125)"/>
<path d="M0 0 C0.99 2.97 0.99 2.97 2 6 C-1 8 -1 8 -5 8 C-5 8.99 -5 9.98 -5 11 C-6.32 10.67 -7.64 10.34 -9 10 C-9 9.34 -9 8.68 -9 8 C-17.69719076 7.85972273 -25.74267346 8.07723343 -34 11 C-35.19238281 11.4021875 -36.38476562 11.804375 -37.61328125 12.21875 C-38.83402344 12.6415625 -40.05476563 13.064375 -41.3125 13.5 C-42.54613281 13.9228125 -43.77976563 14.345625 -45.05078125 14.78125 C-48.1065754 15.66662892 -48.1065754 15.66662892 -49 18 C-49.99 18 -50.98 18 -52 18 C-52 18.66 -52 19.32 -52 20 C-52.66 20 -53.32 20 -54 20 C-54.99 22.475 -54.99 22.475 -56 25 C-56.99 24.67 -57.98 24.34 -59 24 C-59 23.01 -59 22.02 -59 21 C-58.34 21 -57.68 21 -57 21 C-57 20.01 -57 19.02 -57 18 C-61.10575743 21.07931807 -63.51821066 23.51816039 -65.921875 28.15234375 C-67.8428328 31.44441998 -70.44050345 34.19308545 -73 37 C-74.50905428 33.98189144 -73.81192196 31.78557743 -73.046875 28.5703125 C-70.95393296 23.43167122 -66.92044584 19.81260186 -63 16 C-62.36835938 15.35933594 -61.73671875 14.71867187 -61.0859375 14.05859375 C-44.97103463 -1.26770749 -21.12318954 -5.8127696 0 0 Z " fill="#A83FE9" transform="translate(201,118)"/>
<path d="M0 0 C0 0.66 0 1.32 0 2 C0.66 2 1.32 2 2 2 C2 2.99 2 3.98 2 5 C2.66 5 3.32 5 4 5 C4 5.66 4 6.32 4 7 C4.66 7 5.32 7 6 7 C7.0064275 8.66279327 8.00585407 10.32983484 9 12 C9.99 12.66 10.98 13.32 12 14 C12 14.66 12 15.32 12 16 C12.99 16 13.98 16 15 16 C15 16.99 15 17.98 15 19 C18.14629695 18.31796469 18.14629695 18.31796469 19.3125 15.75 C21.74737788 11.78205087 24.99083957 8.97587792 29.1875 6.9375 C31.1661195 6.08757321 31.1661195 6.08757321 32.4375 4 C34.35379107 1.54714743 36.0813384 0.94659295 39 0 C38.835 0.7425 38.67 1.485 38.5 2.25 C37.88074304 5.19006578 37.88074304 5.19006578 38 9 C36.69556309 13.82641658 33.59722902 17.60804763 30 21 C29.34 21 28.68 21 28 21 C27.7525 21.70125 27.505 22.4025 27.25 23.125 C25.82819762 26.39514548 24.12753712 29.141122 22 32 C21.34 32 20.68 32 20 32 C19.34 34.31 18.68 36.62 18 39 C15 38 15 38 13.67578125 35.8125 C13.00095703 34.4203125 13.00095703 34.4203125 12.3125 33 C10.19301643 28.8987993 8.00969304 25.70149129 4.8125 22.375 C0.9470921 18.28786698 -0.76329303 14.44924008 -2 9 C-2.99 9 -3.98 9 -5 9 C-5 8.01 -5 7.02 -5 6 C-5.66 5.67 -6.32 5.34 -7 5 C-2.25 0 -2.25 0 0 0 Z " fill="#AA3DEC" transform="translate(235,142)"/>
<path d="M0 0 C12.49094475 3.48067828 12.49094475 3.48067828 16 6 C17.3777959 10.65006115 17.2169229 13.69656144 15 18 C12.6875 18.1875 12.6875 18.1875 10 18 C8.375 16.5625 8.375 16.5625 7 15 C6.01 14.67 5.02 14.34 4 14 C4 13.34 4 12.68 4 12 C-0.41653692 11.91165114 -4.83284148 11.85916013 -9.25 11.8125 C-10.48492187 11.78736328 -11.71984375 11.76222656 -12.9921875 11.73632812 C-21.53981767 11.66884683 -30.3574726 12.0180314 -38.08300781 16.10083008 C-40 17 -40 17 -44 17 C-44 17.66 -44 18.32 -44 19 C-46.22999621 21.67599545 -48.53218723 23.36928084 -51.5625 25 C-54.74953238 26.85427339 -55.99759862 28.04909271 -58 31 C-58.66 31 -59.32 31 -60 31 C-60.2475 31.7425 -60.495 32.485 -60.75 33.25 C-62.09147301 36.20124062 -63.60905526 37.84814974 -66 40 C-65.42415568 37.61435923 -64.77772405 35.33317216 -64 33 C-63.34 33 -62.68 33 -62 33 C-62.66 32.01 -63.32 31.02 -64 30 C-63.8125 27.875 -63.8125 27.875 -63 26 C-62.01 25.67 -61.02 25.34 -60 25 C-60 24.34 -60 23.68 -60 23 C-59.360625 22.71125 -58.72125 22.4225 -58.0625 22.125 C-55.84793921 21.17176549 -55.84793921 21.17176549 -55 19 C-54.34 19 -53.68 19 -53 19 C-53 18.34 -53 17.68 -53 17 C-52.01 17 -51.02 17 -50 17 C-49.67 16.01 -49.34 15.02 -49 14 C-46.05078125 12.68359375 -46.05078125 12.68359375 -42.3125 11.4375 C-41.09175781 11.02371094 -39.87101562 10.60992187 -38.61328125 10.18359375 C-37.42089844 9.79300781 -36.22851562 9.40242187 -35 9 C-34.03964844 8.63390625 -33.07929688 8.2678125 -32.08984375 7.890625 C-28.13014657 6.74927107 -24.35096938 6.50594195 -20.25 6.3125 C-19.09951172 6.24192383 -19.09951172 6.24192383 -17.92578125 6.16992188 C-12.26682788 5.86658606 -12.26682788 5.86658606 -10 7 C-10 7.66 -10 8.32 -10 9 C-8.68 9.33 -7.36 9.66 -6 10 C-6 9.01 -6 8.02 -6 7 C-3.69 6.34 -1.38 5.68 1 5 C0.505 2.525 0.505 2.525 0 0 Z " fill="#B94AF5" transform="translate(202,119)"/>
<path d="M0 0 C2.97 1.65 5.94 3.3 9 5 C9 5.66 9 6.32 9 7 C7.02 7 5.04 7 3 7 C3.350625 8.0725 3.70125 9.145 4.0625 10.25 C5.23076923 14.92307692 5.23076923 14.92307692 4 18 C4.99 18 5.98 18 7 18 C7.99 20.31 8.98 22.62 10 25 C9.34 25.33 8.68 25.66 8 26 C7.5875 25.360625 7.175 24.72125 6.75 24.0625 C4.74650331 21.70123604 3.91260286 21.63713188 1 21 C-0.02019573 20.0206121 -1.02149805 19.02104551 -2 18 C-4.94729537 16.84188612 -4.94729537 16.84188612 -8 17 C-8.66 17 -9.32 17 -10 17 C-10 15.68 -10 14.36 -10 13 C-12.64932753 11.58071739 -15.07986225 10.68136547 -18 10 C-18.66 9.67 -19.32 9.34 -20 9 C-21.99628664 8.6451046 -23.99690671 8.31421071 -26 8 C-26.9075 7.79375 -27.815 7.5875 -28.75 7.375 C-31.02757055 6.76871373 -31.02757055 6.76871373 -33 8 C-33.72960937 7.81824219 -34.45921875 7.63648438 -35.2109375 7.44921875 C-38.81930899 6.86803847 -41.16463772 7.6868879 -44.625 8.8125 C-45.75164062 9.16957031 -46.87828125 9.52664062 -48.0390625 9.89453125 C-51.12467604 10.91798985 -51.12467604 10.91798985 -54 13 C-54.9075 13.020625 -55.815 13.04125 -56.75 13.0625 C-61.29053366 14.37226932 -62.65880955 17.10903716 -65.3359375 20.859375 C-67.26058944 23.33521833 -69.32963201 24.41221363 -72 26 C-73.98799884 28.83139229 -75.45476631 31.90953263 -77 35 C-77.66 35 -78.32 35 -79 35 C-79.99 37.475 -79.99 37.475 -81 40 C-81.33 40 -81.66 40 -82 40 C-82.39600885 35.51189971 -81.18606399 32.88633599 -79 29 C-78.54625 28.154375 -78.0925 27.30875 -77.625 26.4375 C-74.84509716 22.26764573 -71.24241168 18.68686073 -67 16 C-66.01 16 -65.02 16 -64 16 C-63.34 14.68 -62.68 13.36 -62 12 C-61.34 12 -60.68 12 -60 12 C-60 11.34 -60 10.68 -60 10 C-58.54683309 9.36308004 -57.0870304 8.74130205 -55.625 8.125 C-54.81289062 7.77695313 -54.00078125 7.42890625 -53.1640625 7.0703125 C-44.30822908 4.07463551 -35.7961253 3.7132717 -26.5 3.8125 C-24.73269531 3.8134668 -24.73269531 3.8134668 -22.9296875 3.81445312 C-14.2816311 3.85918445 -14.2816311 3.85918445 -12 5 C-12 5.66 -12 6.32 -12 7 C-11.38125 7.12375 -10.7625 7.2475 -10.125 7.375 C-8 8 -8 8 -6 10 C-4.35 10.33 -2.7 10.66 -1 11 C-0.67 7.37 -0.34 3.74 0 0 Z " fill="#BD51F1" transform="translate(218,126)"/>
<path d="M0 0 C1.11246094 -0.03738281 2.22492188 -0.07476562 3.37109375 -0.11328125 C11.70798616 -0.20062937 17.94056185 1.64683058 25.375 5.375 C25.375 6.035 25.375 6.695 25.375 7.375 C25.93574219 7.46652344 26.49648438 7.55804688 27.07421875 7.65234375 C34.07963632 9.85268713 42.82290994 17.95046167 46.375 24.375 C46.05078125 27.11328125 46.05078125 27.11328125 45.375 29.375 C41.375 24.75 41.375 24.75 41.375 21.375 C39.395 21.375 37.415 21.375 35.375 21.375 C34.88 20.385 34.88 20.385 34.375 19.375 C35.365 18.88 35.365 18.88 36.375 18.375 C34.75160195 16.66615995 33.08180947 15.00053283 31.375 13.375 C30.715 13.375 30.055 13.375 29.375 13.375 C29.375 12.715 29.375 12.055 29.375 11.375 C27.395 11.705 25.415 12.035 23.375 12.375 C22.88 11.385 22.88 11.385 22.375 10.375 C23.035 9.715 23.695 9.055 24.375 8.375 C22.065 8.045 19.755 7.715 17.375 7.375 C17.375 6.715 17.375 6.055 17.375 5.375 C16.42625 5.230625 15.4775 5.08625 14.5 4.9375 C11.375 4.375 11.375 4.375 9.375 3.375 C8.22 3.375 7.065 3.375 5.875 3.375 C2.375 3.375 2.375 3.375 0.375 2.375 C-4.27718855 2.81868222 -4.27718855 2.81868222 -8.625 4.375 C-8.625 3.715 -8.625 3.055 -8.625 2.375 C-11.6995356 3.1513932 -11.6995356 3.1513932 -13.625 5.375 C-14.223125 5.519375 -14.82125 5.66375 -15.4375 5.8125 C-18.21932014 6.52782518 -20.1912246 7.84681545 -22.625 9.375 C-23.70007813 9.95636719 -24.77515625 10.53773438 -25.8828125 11.13671875 C-29.70609569 13.31352595 -32.90283302 15.96674238 -36.1875 18.875 C-39.32080579 21.62930712 -42.35724652 24.19898288 -45.8515625 26.49609375 C-48.36351452 28.19785279 -49.77690016 29.45493101 -51.4375 31.9375 C-51.83582031 32.51628906 -52.23414063 33.09507812 -52.64453125 33.69140625 C-53.78755123 35.52239237 -53.78755123 35.52239237 -54.625 38.375 C-55.285 38.375 -55.945 38.375 -56.625 38.375 C-56.13 35.405 -56.13 35.405 -55.625 32.375 C-54.965 32.375 -54.305 32.375 -53.625 32.375 C-53.30015625 31.57835937 -53.30015625 31.57835937 -52.96875 30.765625 C-51.12659748 27.48830715 -48.66362231 24.86697449 -46.125 22.125 C-45.62613281 21.57070312 -45.12726563 21.01640625 -44.61328125 20.4453125 C-43.3281646 19.0464992 -41.98066232 17.70555746 -40.625 16.375 C-39.965 16.375 -39.305 16.375 -38.625 16.375 C-38.625 15.715 -38.625 15.055 -38.625 14.375 C-37.965 14.375 -37.305 14.375 -36.625 14.375 C-36.625 13.715 -36.625 13.055 -36.625 12.375 C-23.93976323 3.375 -23.93976323 3.375 -18.625 3.375 C-18.625 2.715 -18.625 2.055 -18.625 1.375 C-12.39138022 0.23226599 -6.32349569 0.07895398 0 0 Z " fill="#F2C0FD" transform="translate(318.625,130.625)"/>
<path d="M0 0 C1.11375 0.37125 2.2275 0.7425 3.375 1.125 C4.24125 1.41375 5.1075 1.7025 6 2 C5.67 2.99 5.34 3.98 5 5 C6.65 5.33 8.3 5.66 10 6 C10.495 8.475 10.495 8.475 11 11 C12.485 11.495 12.485 11.495 14 12 C13.34 12.66 12.68 13.32 12 14 C11.45730469 13.57847656 10.91460937 13.15695313 10.35546875 12.72265625 C9.64003906 12.17480469 8.92460937 11.62695312 8.1875 11.0625 C7.47980469 10.51722656 6.77210938 9.97195312 6.04296875 9.41015625 C3.95874948 7.83143752 3.95874948 7.83143752 1 7 C1 6.34 1 5.68 1 5 C0.13375 4.896875 -0.7325 4.79375 -1.625 4.6875 C-5 4 -5 4 -7.73681641 2.4753418 C-11.61397579 0.72241091 -14.34420844 0.6561305 -18.5859375 0.70703125 C-19.28772125 0.71127609 -19.989505 0.71552094 -20.71255493 0.71989441 C-22.9337756 0.73656401 -25.15405788 0.77419128 -27.375 0.8125 C-28.88930973 0.82756212 -30.40363381 0.84124784 -31.91796875 0.85351562 C-35.61227932 0.88642817 -39.30604793 0.93812741 -43 1 C-43 1.66 -43 2.32 -43 3 C-43.65226562 3.31453125 -44.30453125 3.6290625 -44.9765625 3.953125 C-50.90453043 6.84224506 -50.90453043 6.84224506 -56.5 10.3125 C-59 12 -59 12 -61 12 C-61 11.34 -61 10.68 -61 10 C-58 8 -58 8 -55 8 C-55 7.34 -55 6.68 -55 6 C-54.01 6 -53.02 6 -52 6 C-51.690625 5.21625 -51.38125 4.4325 -51.0625 3.625 C-49.47700563 -0.29210373 -48.80814167 -1.3630363 -44.9375 -3.0625 C-29.62190456 -8.8276034 -14.87434026 -5.10771167 0 0 Z " fill="#C252F5" transform="translate(343,131)"/>
<path d="M0 0 C0.87822019 2.45901654 1.19223228 3.56061193 0.125 6 C-0.24625 6.66 -0.6175 7.32 -1 8 C-4.54022154 20.70637654 -4.50972047 32.18055696 -2.33984375 45.12890625 C-2 48 -2 48 -3 50 C-2.34 50 -1.68 50 -1 50 C0.64681249 56.30760257 2.26309887 62.51527007 3 69 C2.34 69 1.68 69 1 69 C-0.80230168 65.17010894 -1.19622241 62.21878192 -1 58 C-1.66 58 -2.32 58 -3 58 C-3 56.02 -3 54.04 -3 52 C-3.99 52 -4.98 52 -6 52 C-8.50109947 36.70199259 -10.63601905 22.1443289 -6 7 C-5.34 7 -4.68 7 -4 7 C-3.67 5.35 -3.34 3.7 -3 2 C-2.01 2 -1.02 2 0 2 C0 1.34 0 0.68 0 0 Z " fill="#9D44D8" transform="translate(125,158)"/>
<path d="M0 0 C-0.41121534 4.8898867 -2.83193466 7.44994696 -6.125 10.8125 C-7.1308675 11.87307314 -8.13607578 12.93427188 -9.140625 13.99609375 C-9.63111328 14.50897949 -10.12160156 15.02186523 -10.62695312 15.55029297 C-12.42585653 17.44963302 -14.15703641 19.40238251 -15.875 21.375 C-16.41253906 21.99117188 -16.95007813 22.60734375 -17.50390625 23.2421875 C-18.97401734 24.96947207 -20.39315242 26.73095809 -21.8125 28.5 C-22.534375 29.325 -23.25625 30.15 -24 31 C-24.66 31 -25.32 31 -26 31 C-26.226875 31.556875 -26.45375 32.11375 -26.6875 32.6875 C-28.41240914 35.72662564 -30.32149829 37.75753345 -33 40 C-35.8125 40.3125 -35.8125 40.3125 -38 40 C-38.33 39.34 -38.66 38.68 -39 38 C-38.01 38 -37.02 38 -36 38 C-36.495 36.515 -36.495 36.515 -37 35 C-35.02 34.505 -35.02 34.505 -33 34 C-33 33.01 -33 32.02 -33 31 C-31.824375 30.6596875 -31.824375 30.6596875 -30.625 30.3125 C-27.31827043 28.65913521 -27.28226023 27.33387661 -26 24 C-25.3503125 23.87625 -24.700625 23.7525 -24.03125 23.625 C-23.3609375 23.41875 -22.690625 23.2125 -22 23 C-21.04386771 20.97465553 -21.04386771 20.97465553 -20.5625 18.5625 C-19.84375 16.0859375 -19.84375 16.0859375 -19 14 C-16.5625 12.6875 -16.5625 12.6875 -14 12 C-11.66545339 10.16641665 -11.66545339 10.16641665 -10 8 C-10 7.01 -10 6.02 -10 5 C-8.68 5 -7.36 5 -6 5 C-5.67 4.01 -5.34 3.02 -5 2 C-2 0 -2 0 0 0 Z " fill="#9A42D9" transform="translate(331,298)"/>
<path d="M0 0 C1.51110352 -0.0309375 1.51110352 -0.0309375 3.05273438 -0.0625 C9.33205059 -0.09522608 13.95931868 0.64939199 19.6875 3.25 C17.8125 4.3125 17.8125 4.3125 15.6875 5.25 C15.0275 4.92 14.3675 4.59 13.6875 4.25 C11.69121336 3.8951046 9.69059329 3.56421071 7.6875 3.25 C6.78 3.04375 5.8725 2.8375 4.9375 2.625 C2.65992945 2.01871373 2.65992945 2.01871373 0.6875 3.25 C-0.04210937 3.06824219 -0.77171875 2.88648438 -1.5234375 2.69921875 C-5.13180899 2.11803847 -7.47713772 2.9368879 -10.9375 4.0625 C-12.06414062 4.41957031 -13.19078125 4.77664062 -14.3515625 5.14453125 C-17.43717604 6.16798985 -17.43717604 6.16798985 -20.3125 8.25 C-21.22 8.270625 -22.1275 8.29125 -23.0625 8.3125 C-27.60303366 9.62226932 -28.97130955 12.35903716 -31.6484375 16.109375 C-33.57308944 18.58521833 -35.64213201 19.66221363 -38.3125 21.25 C-40.30049884 24.08139229 -41.76726631 27.15953263 -43.3125 30.25 C-43.9725 30.25 -44.6325 30.25 -45.3125 30.25 C-46.3025 32.725 -46.3025 32.725 -47.3125 35.25 C-47.6425 35.25 -47.9725 35.25 -48.3125 35.25 C-48.70850885 30.76189971 -47.49856399 28.13633599 -45.3125 24.25 C-44.85875 23.404375 -44.405 22.55875 -43.9375 21.6875 C-41.15759716 17.51764573 -37.55491168 13.93686073 -33.3125 11.25 C-32.3225 11.25 -31.3325 11.25 -30.3125 11.25 C-29.6525 9.93 -28.9925 8.61 -28.3125 7.25 C-27.6525 7.25 -26.9925 7.25 -26.3125 7.25 C-26.3125 6.59 -26.3125 5.93 -26.3125 5.25 C-24.75229133 4.59865075 -23.18921421 3.95417036 -21.625 3.3125 C-20.75488281 2.95285156 -19.88476562 2.59320313 -18.98828125 2.22265625 C-12.72380487 -0.05450378 -6.58879702 0.0333399 0 0 Z " fill="#E9ADFC" transform="translate(184.3125,130.75)"/>
<path d="M0 0 C5.78562344 -0.28928117 9.00526739 0.56132406 13.47070312 4.39746094 C19.78677742 10.24164463 25.37715569 16.72719191 30 24 C30 24.66 30 25.32 30 26 C27 26 27 26 25.39453125 24.5390625 C24.87246094 23.90742188 24.35039062 23.27578125 23.8125 22.625 C23.28269531 21.99851563 22.75289062 21.37203125 22.20703125 20.7265625 C21 19 21 19 21 17 C20.34 17 19.68 17 19 17 C19 16.34 19 15.68 19 15 C18.34 15 17.68 15 17 15 C17 14.01 17 13.02 17 12 C16.34 12 15.68 12 15 12 C15 11.34 15 10.68 15 10 C14.34 10 13.68 10 13 10 C12.67 10.99 12.34 11.98 12 13 C8.55555556 16 8.55555556 16 6 16 C5.67 14.68 5.34 13.36 5 12 C4.01 12 3.02 12 2 12 C1.93941406 11.38511719 1.87882813 10.77023438 1.81640625 10.13671875 C1.73261719 9.32847656 1.64882812 8.52023438 1.5625 7.6875 C1.48128906 6.88699219 1.40007812 6.08648437 1.31640625 5.26171875 C1.04734307 2.83912821 1.04734307 2.83912821 0 0 Z " fill="#B545F6" transform="translate(220,132)"/>
<path d="M0 0 C0 0.99 0 1.98 0 3 C-0.66 3 -1.32 3 -2 3 C-2 3.66 -2 4.32 -2 5 C-2.66 5 -3.32 5 -4 5 C-4 5.66 -4 6.32 -4 7 C-4.99 7 -5.98 7 -7 7 C-7.33 7.66 -7.66 8.32 -8 9 C-8.98020375 10.0194119 -9.97803008 11.02246356 -11 12 C-10.34 12.33 -9.68 12.66 -9 13 C-9.66 13 -10.32 13 -11 13 C-11.33 13.99 -11.66 14.98 -12 16 C-13.70703125 16.7734375 -13.70703125 16.7734375 -15.8125 17.375 C-19.8808708 18.75042785 -21.4609335 20.49783931 -24 24 C-26.34973328 25.58606997 -28.55839801 26.8233592 -31.1875 27.875 C-33.2602641 28.9105548 -33.2602641 28.9105548 -34 31.5625 C-34.33 32.366875 -34.66 33.17125 -35 34 C-37.125 34.8125 -37.125 34.8125 -39 35 C-37.86160164 31.58480492 -36.5510596 30.47751554 -34 28 C-32.75190582 26.45257702 -31.52351777 24.88910804 -30.3125 23.3125 C-11.75835169 0 -11.75835169 0 0 0 Z " fill="#A844E6" transform="translate(289,126)"/>
<path d="M0 0 C23.78877436 -1.03194763 23.78877436 -1.03194763 34 5 C34 5.66 34 6.32 34 7 C34.56074219 7.09152344 35.12148438 7.18304688 35.69921875 7.27734375 C42.70463632 9.47768713 51.44790994 17.57546167 55 24 C54.67578125 26.73828125 54.67578125 26.73828125 54 29 C50 24.375 50 24.375 50 21 C48.02 21 46.04 21 44 21 C43.505 20.01 43.505 20.01 43 19 C43.66 18.67 44.32 18.34 45 18 C43.37660195 16.29115995 41.70680947 14.62553283 40 13 C39.34 13 38.68 13 38 13 C38 12.34 38 11.68 38 11 C36.02 11.33 34.04 11.66 32 12 C31.67 11.34 31.34 10.68 31 10 C31.66 9.34 32.32 8.68 33 8 C30.69 7.67 28.38 7.34 26 7 C26 6.34 26 5.68 26 5 C25.05125 4.855625 24.1025 4.71125 23.125 4.5625 C20 4 20 4 18 3 C16.845 3 15.69 3 14.5 3 C11 3 11 3 9 2 C4.34781145 2.44368222 4.34781145 2.44368222 0 4 C0 2.68 0 1.36 0 0 Z " fill="#F5C9FD" transform="translate(310,131)"/>
<path d="M0 0 C0.33 0 0.66 0 1 0 C1.20797406 5.84638181 1.03483715 10.46072109 -1 16 C-1.28683578 17.72658428 -1.55573763 19.45618803 -1.8125 21.1875 C-2.8453657 27.3007214 -5.21215919 32.49880267 -8 38 C-8.99 38 -9.98 38 -11 38 C-11.12375 38.61875 -11.2475 39.2375 -11.375 39.875 C-12 42 -12 42 -14 44 C-15 41 -15 41 -14 38 C-13.34 38 -12.68 38 -12 38 C-11.896875 37.319375 -11.79375 36.63875 -11.6875 35.9375 C-11 33 -11 33 -9.5 29.5625 C-7.52992461 24.88357096 -7 21.0527056 -7 16 C-6.34 16 -5.68 16 -5 16 C-4.67 14.68 -4.34 13.36 -4 12 C-3.34 12.33 -2.68 12.66 -2 13 C-1.93941406 12.39671875 -1.87882812 11.7934375 -1.81640625 11.171875 C-1.73261719 10.37265625 -1.64882813 9.5734375 -1.5625 8.75 C-1.48128906 7.96109375 -1.40007812 7.1721875 -1.31640625 6.359375 C-1.02365007 4.17635361 -0.57935581 2.1226818 0 0 Z " fill="#BB6FE3" transform="translate(381,204)"/>
<path d="M0 0 C0.66 0 1.32 0 2 0 C2 0.66 2 1.32 2 2 C2.66 2 3.32 2 4 2 C5.01866229 3.65532623 6.01810813 5.32260138 7 7 C7.66 7.33 8.32 7.66 9 8 C9 8.66 9 9.32 9 10 C9.66 10 10.32 10 11 10 C11 10.66 11 11.32 11 12 C11.94875 12.309375 12.8975 12.61875 13.875 12.9375 C19.47842331 14.84266393 20.21570218 16.89545401 23 22 C24.32 21.67 25.64 21.34 27 21 C27.66666667 22.66666667 28.33333333 24.33333333 29 26 C29.350625 26.804375 29.70125 27.60875 30.0625 28.4375 C31.10139486 31.27714594 31.58292134 34.01093625 32 37 C30.88020758 35.88020758 29.76110127 34.75972433 28.64453125 33.63671875 C27.4019315 32.40002209 26.14716167 31.17553706 24.88671875 29.95703125 C24.16097656 29.24933594 23.43523437 28.54164063 22.6875 27.8125 C21.99011719 27.13832031 21.29273438 26.46414063 20.57421875 25.76953125 C19 24 19 24 19 22 C18.34 22 17.68 22 17 22 C15.56450274 20.40665761 14.20172673 18.74748918 12.875 17.0625 C9.21574082 12.47211653 5.42532841 8.08032478 1.43359375 3.77734375 C0 2 0 2 0 0 Z " fill="#B670E4" transform="translate(163,289)"/>
<path d="M0 0 C1.55772171 2.33658256 2.5701906 4.12619878 3.5625 6.6875 C3.81128906 7.31011719 4.06007813 7.93273437 4.31640625 8.57421875 C7.99687723 21.63463293 7.0307004 37.94753569 4 51 C3.75894531 52.04929688 3.51789063 53.09859375 3.26953125 54.1796875 C2.06096564 59.19799548 0.75488667 64.14031385 -1 69 C-1.33 69 -1.66 69 -2 69 C-2.15187543 65.8106159 -2.12065205 63.34586921 -1.0625 60.3125 C0.44450582 55.61418774 0.66842943 50.90375425 1 46 C1.66 46 2.32 46 3 46 C3 34.45 3 22.9 3 11 C2.34 11 1.68 11 1 11 C0.67 7.37 0.34 3.74 0 0 Z " fill="#D9AAF0" transform="translate(381,157)"/>
<path d="M0 0 C0.66 0 1.32 0 2 0 C2.66 1.98 3.32 3.96 4 6 C4.66 6 5.32 6 6 6 C6.33 9.63 6.66 13.26 7 17 C7.66 17 8.32 17 9 17 C9.92151124 23.24579839 10.15188368 29.31629554 10.125 35.625 C10.12886719 36.54023438 10.13273437 37.45546875 10.13671875 38.3984375 C10.13000255 43.04605003 9.95675721 47.42882664 9 52 C8.34 52 7.68 52 7 52 C7.01571045 51.24493164 7.0314209 50.48986328 7.04760742 49.71191406 C7.11073548 46.22468843 7.14923498 42.73758367 7.1875 39.25 C7.21263672 38.06277344 7.23777344 36.87554687 7.26367188 35.65234375 C7.32959704 27.60947337 6.20469467 20.70670792 4 13 C3.84426514 12.08379883 3.68853027 11.16759766 3.52807617 10.22363281 C3.35381104 9.48983398 3.1795459 8.75603516 3 8 C2.34 7.67 1.68 7.34 1 7 C0.59270772 4.67843403 0.25561323 2.3431213 0 0 Z " fill="#A34BDB" transform="translate(375,151)"/>
<path d="M0 0 C0 0.33 0 0.66 0 1 C-7.18082254 2.12866889 -14.24205132 2.11434249 -21.5 2.0625 C-23.30597656 2.05573242 -23.30597656 2.05573242 -25.1484375 2.04882812 C-28.09901073 2.0371195 -31.04947859 2.02071995 -34 2 C-34.33 2.66 -34.66 3.32 -35 4 C-36.92578125 4.66796875 -36.92578125 4.66796875 -39.3125 5.1875 C-40.09238281 5.36667969 -40.87226563 5.54585938 -41.67578125 5.73046875 C-44.09204759 6.01067443 -45.70242952 5.74132137 -48 5 C-32.31236369 -1.95458666 -16.87216146 -4.64295352 0 0 Z " fill="#B56AE4" transform="translate(201,118)"/>
<path d="M0 0 C8.93844409 5.91734986 16.40365495 13.86101451 22 23 C22 23.66 22 24.32 22 25 C19 25 19 25 17.39453125 23.5390625 C16.87246094 22.90742188 16.35039062 22.27578125 15.8125 21.625 C15.28269531 20.99851563 14.75289062 20.37203125 14.20703125 19.7265625 C13 18 13 18 13 16 C12.34 16 11.68 16 11 16 C11 15.34 11 14.68 11 14 C10.34 14 9.68 14 9 14 C9 13.01 9 12.02 9 11 C8.34 11 7.68 11 7 11 C7 10.34 7 9.68 7 9 C4.525 8.01 4.525 8.01 2 7 C2 6.01 2 5.02 2 4 C1.34 4 0.68 4 0 4 C0 2.68 0 1.36 0 0 Z " fill="#BC78E3" transform="translate(228,133)"/>
<path d="M0 0 C0 0.66 0 1.32 0 2 C-1.25031006 1.51104248 -1.25031006 1.51104248 -2.52587891 1.01220703 C-6.38830838 -0.11313609 -9.56741605 -0.22746067 -13.5859375 -0.1953125 C-14.28772125 -0.1924826 -14.989505 -0.18965271 -15.71255493 -0.18673706 C-17.93355028 -0.17562512 -20.15412845 -0.15053834 -22.375 -0.125 C-23.88931705 -0.11495854 -25.40364049 -0.10583473 -26.91796875 -0.09765625 C-30.61211258 -0.07571554 -34.30601551 -0.04124875 -38 0 C-38 0.66 -38 1.32 -38 2 C-38.65226562 2.31453125 -39.30453125 2.6290625 -39.9765625 2.953125 C-45.90453043 5.84224506 -45.90453043 5.84224506 -51.5 9.3125 C-54 11 -54 11 -56 11 C-56 10.34 -56 9.68 -56 9 C-53 7 -53 7 -50 7 C-50 6.34 -50 5.68 -50 5 C-49.01 5 -48.02 5 -47 5 C-47 4.34 -47 3.68 -47 3 C-45.02 2.67 -43.04 2.34 -41 2 C-41 1.34 -41 0.68 -41 0 C-29.11611187 -3.71786444 -11.465789 -6.36700699 0 0 Z " fill="#C86BED" transform="translate(338,132)"/>
<path d="M0 0 C0.99 0.495 0.99 0.495 2 1 C2 1.99 2 2.98 2 4 C2.66 4 3.32 4 4 4 C4.66 5.32 5.32 6.64 6 8 C6.99 8 7.98 8 9 8 C9.8441938 11.97977076 10.44687265 15.97007218 11 20 C11.66 20 12.32 20 13 20 C13.9765625 21.79036458 14.953125 23.58072917 15.9296875 25.37109375 C16.91410024 27.16618315 16.91410024 27.16618315 19 28 C20.10546875 29.99609375 20.10546875 29.99609375 21.1875 32.4375 C21.55230469 33.24058594 21.91710937 34.04367187 22.29296875 34.87109375 C23 37 23 37 22 39 C15.7187952 29.89534323 9.64675065 20.72432865 4.25 11.0625 C3.60538818 9.919021 3.60538818 9.919021 2.94775391 8.75244141 C2.3626001 7.68582275 2.3626001 7.68582275 1.765625 6.59765625 C1.42305664 5.97383057 1.08048828 5.35000488 0.72753906 4.70727539 C0 3 0 3 0 0 Z " fill="#C088E5" transform="translate(129,236)"/>
<path d="M0 0 C0.8125 1.6875 0.8125 1.6875 1 4 C-0.60958221 5.92111425 -2.11024158 7.38527685 -4 9 C-4.65226562 9.57234375 -5.30453125 10.1446875 -5.9765625 10.734375 C-7.36451569 11.95078342 -8.7538351 13.16563475 -10.14453125 14.37890625 C-14.58840519 18.26144874 -17.21442108 21.826782 -20 27 C-20.66 27 -21.32 27 -22 27 C-21.67 25.02 -21.34 23.04 -21 21 C-20.34 21 -19.68 21 -19 21 C-18.67515625 20.20335937 -18.67515625 20.20335937 -18.34375 19.390625 C-16.50159748 16.11330715 -14.03862231 13.49197449 -11.5 10.75 C-11.00113281 10.19570312 -10.50226563 9.64140625 -9.98828125 9.0703125 C-8.7031646 7.6714992 -7.35566232 6.33055746 -6 5 C-5.34 5 -4.68 5 -4 5 C-4 4.34 -4 3.68 -4 3 C-3.34 3 -2.68 3 -2 3 C-2 2.34 -2 1.68 -2 1 C-1.34 0.67 -0.68 0.34 0 0 Z " fill="#E8A7FD" transform="translate(284,142)"/>
<path d="M0 0 C1.51110352 -0.0309375 1.51110352 -0.0309375 3.05273438 -0.0625 C9.33205059 -0.09522608 13.95931868 0.64939199 19.6875 3.25 C17.8125 4.3125 17.8125 4.3125 15.6875 5.25 C15.0275 4.92 14.3675 4.59 13.6875 4.25 C11.69121336 3.8951046 9.69059329 3.56421071 7.6875 3.25 C6.78 3.04375 5.8725 2.8375 4.9375 2.625 C2.65992945 2.01871373 2.65992945 2.01871373 0.6875 3.25 C-0.03824219 3.06566406 -0.76398438 2.88132813 -1.51171875 2.69140625 C-5.18959914 2.1117682 -7.61136512 3.01628837 -11.125 4.1875 C-12.86716797 4.75791016 -12.86716797 4.75791016 -14.64453125 5.33984375 C-15.52496094 5.64019531 -16.40539062 5.94054687 -17.3125 6.25 C-17.3125 3.25 -17.3125 3.25 -16.3125 1.25 C-10.97364775 -0.21257143 -5.49294727 0.0277948 0 0 Z " fill="#F1BDFC" transform="translate(184.3125,130.75)"/>
<path d="M0 0 C1.65322266 0.01740234 1.65322266 0.01740234 3.33984375 0.03515625 C4.99693359 0.04869141 4.99693359 0.04869141 6.6875 0.0625 C7.54214844 0.07410156 8.39679688 0.08570312 9.27734375 0.09765625 C9.60734375 2.40765625 9.93734375 4.71765625 10.27734375 7.09765625 C9.28734375 7.42765625 8.29734375 7.75765625 7.27734375 8.09765625 C6.94734375 7.76765625 6.61734375 7.43765625 6.27734375 7.09765625 C5.12234375 6.93265625 3.96734375 6.76765625 2.77734375 6.59765625 C-0.72265625 6.09765625 -0.72265625 6.09765625 -1.72265625 5.09765625 C-3.23735073 4.8657276 -4.76020187 4.68550387 -6.28515625 4.53515625 C-7.11144531 4.45136719 -7.93773437 4.36757812 -8.7890625 4.28125 C-9.42714844 4.22066406 -10.06523437 4.16007812 -10.72265625 4.09765625 C-10.06265625 3.10765625 -9.40265625 2.11765625 -8.72265625 1.09765625 C-6.16015625 0.97265625 -6.16015625 0.97265625 -3.72265625 1.09765625 C-2.72265625 0.09765625 -2.72265625 0.09765625 0 0 Z " fill="#A63BEE" transform="translate(326.72265625,119.90234375)"/>
<path d="M0 0 C0.99 0 1.98 0 3 0 C3 1.32 3 2.64 3 4 C2.34 4 1.68 4 1 4 C0.67 5.32 0.34 6.64 0 8 C-0.66 8 -1.32 8 -2 8 C-1.87625 9.3303125 -1.87625 9.3303125 -1.75 10.6875 C-2.05517122 14.73101869 -3.12396886 16.20614118 -6 19 C-6.99 19 -7.98 19 -9 19 C-9.268125 19.598125 -9.53625 20.19625 -9.8125 20.8125 C-10.98493467 22.97224808 -12.19369282 24.35790256 -14 26 C-13.47731534 23.23723823 -12.89130413 20.6739124 -12 18 C-11.34 18 -10.68 18 -10 18 C-9.690625 17.05125 -9.38125 16.1025 -9.0625 15.125 C-8 12 -8 12 -7 10 C-5.68 10 -4.36 10 -3 10 C-2.86722656 9.36191406 -2.73445313 8.72382813 -2.59765625 8.06640625 C-2.42105469 7.24011719 -2.24445313 6.41382813 -2.0625 5.5625 C-1.88847656 4.73878906 -1.71445312 3.91507812 -1.53515625 3.06640625 C-1 1 -1 1 0 0 Z " fill="#AA61DB" transform="translate(354,262)"/>
<path d="M0 0 C0.33 0 0.66 0 1 0 C1 14.85 1 29.7 1 45 C0.67 45 0.34 45 0 45 C-2.50109947 29.70199259 -4.63601905 15.1443289 0 0 Z " fill="#D2A5EF" transform="translate(119,165)"/>
<path d="M0 0 C0.33 0.66 0.66 1.32 1 2 C2.32148827 2.37756808 3.65835921 2.7018576 5 3 C6.6744239 3.6469365 8.34302621 4.30959426 10 5 C10 5.66 10 6.32 10 7 C10.66 7 11.32 7 12 7 C12 7.66 12 8.32 12 9 C11.2575 9.12375 10.515 9.2475 9.75 9.375 C7.01820689 9.87589514 7.01820689 9.87589514 4.8125 11.125 C4.214375 11.41375 3.61625 11.7025 3 12 C2.34 11.67 1.68 11.34 1 11 C1 10.01 1 9.02 1 8 C-0.32 7.34 -1.64 6.68 -3 6 C-2.42655063 3.13275314 -2.1385485 2.1385485 0 0 Z " fill="#A73DEB" transform="translate(347,125)"/>
<path d="M0 0 C3.71888239 0.50712033 6.73454239 1.11608215 10 3 C10 3.66 10 4.32 10 5 C11.4540625 5.4021875 11.4540625 5.4021875 12.9375 5.8125 C13.948125 6.204375 14.95875 6.59625 16 7 C16.33 7.99 16.66 8.98 17 10 C17.99 10 18.98 10 20 10 C22.1875 13 22.1875 13 24 16 C23.34 16.33 22.68 16.66 22 17 C21.5875 16.360625 21.175 15.72125 20.75 15.0625 C18.74650331 12.70123604 17.91260286 12.63713188 15 12 C13.97980427 11.0206121 12.97850195 10.02104551 12 9 C9.05270463 7.84188612 9.05270463 7.84188612 6 8 C5.34 8 4.68 8 4 8 C4 6.68 4 5.36 4 4 C2.68 3.34 1.36 2.68 0 2 C0 1.34 0 0.68 0 0 Z " fill="#F1BBFC" transform="translate(204,135)"/>
<path d="M0 0 C0.66 0 1.32 0 2 0 C2 1.32 2 2.64 2 4 C1.34 4 0.68 4 0 4 C-0.06058594 5.1653125 -0.12117188 6.330625 -0.18359375 7.53125 C-0.80614532 12.51166258 -3.03164225 15.61449873 -6.0625 19.5 C-6.53494141 20.13164062 -7.00738281 20.76328125 -7.49414062 21.4140625 C-8.64864264 22.95339852 -9.82237646 24.47827956 -11 26 C-11.33 24.68 -11.66 23.36 -12 22 C-11.34 21.67 -10.68 21.34 -10 21 C-9.67 20.01 -9.34 19.02 -9 18 C-8.34 18 -7.68 18 -7 18 C-7.020625 16.88625 -7.04125 15.7725 -7.0625 14.625 C-7 11 -7 11 -6 9 C-5.01 9 -4.02 9 -3 9 C-2.87625 7.88625 -2.7525 6.7725 -2.625 5.625 C-2 2 -2 2 0 0 Z " fill="#B56BE1" transform="translate(364,248)"/>
<path d="M0 0 C1.13199829 -0.0009668 1.13199829 -0.0009668 2.28686523 -0.00195312 C7.9916687 0.0518139 13.35735874 0.66913189 18.875 2.1875 C18.875 2.5175 18.875 2.8475 18.875 3.1875 C7.325 3.1875 -4.225 3.1875 -16.125 3.1875 C-10.53485716 0.39242858 -6.21340077 -0.00543189 0 0 Z " fill="#B371E0" transform="translate(319.125,115.8125)"/>
<path d="M0 0 C0.33 0 0.66 0 1 0 C1.34656486 4.62086485 0.49605732 7.8790505 -1.24609375 12.0703125 C-2.66774939 15.70916166 -3.15013095 19.08878227 -3.31640625 22.984375 C-3.35830078 23.91894531 -3.40019531 24.85351562 -3.44335938 25.81640625 C-3.48267578 26.78449219 -3.52199219 27.75257813 -3.5625 28.75 C-3.60568359 29.73355469 -3.64886719 30.71710938 -3.69335938 31.73046875 C-3.79922052 34.15351275 -3.90130171 36.5766554 -4 39 C-4.33 39 -4.66 39 -5 39 C-5.16912828 36.14596025 -5.33537163 33.29179998 -5.5 30.4375 C-5.54769531 29.63763672 -5.59539062 28.83777344 -5.64453125 28.01367188 C-6.23771881 17.63288962 -6.25499193 8.81385226 0 0 Z " fill="#A740E6" transform="translate(135,160)"/>
<path d="M0 0 C9.8095652 0.77443936 17.70788861 6.88801291 25 13 C22.50907189 14.24546405 21.58919267 13.7767578 19 13 C19 12.34 19 11.68 19 11 C17.88625 10.8453125 17.88625 10.8453125 16.75 10.6875 C13.82985982 9.95746496 12.26812446 8.93210602 10 7 C10.66 7 11.32 7 12 7 C12 6.34 12 5.68 12 5 C8.37 4.67 4.74 4.34 1 4 C0.67 2.68 0.34 1.36 0 0 Z " fill="#B874DF" transform="translate(338,119)"/>
<path d="M0 0 C4.29165262 -0.02891949 8.58328036 -0.04677118 12.875 -0.0625 C14.70998047 -0.07506836 14.70998047 -0.07506836 16.58203125 -0.08789062 C18.33193359 -0.09272461 18.33193359 -0.09272461 20.1171875 -0.09765625 C21.73536377 -0.10551147 21.73536377 -0.10551147 23.38623047 -0.11352539 C26 0 26 0 28 1 C28 1.66 28 2.32 28 3 C28.928125 3.185625 28.928125 3.185625 29.875 3.375 C32 4 32 4 34 6 C35.31747324 6.69748583 36.64914193 7.36959957 38 8 C38 8.66 38 9.32 38 10 C37.34 10 36.68 10 36 10 C36 9.34 36 8.68 36 8 C35.47792969 7.87625 34.95585937 7.7525 34.41796875 7.625 C31.35550995 6.8334113 28.33832615 5.92164022 25.3125 5 C24.15363281 4.649375 22.99476563 4.29875 21.80078125 3.9375 C19 3 19 3 18 2 C16.65984779 1.84417697 15.31241097 1.74955858 13.96484375 1.68359375 C13.15595703 1.64169922 12.34707031 1.59980469 11.51367188 1.55664062 C10.66353516 1.51732422 9.81339844 1.47800781 8.9375 1.4375 C8.08349609 1.39431641 7.22949219 1.35113281 6.34960938 1.30664062 C4.23327963 1.20023298 2.11666187 1.09958269 0 1 C0 0.67 0 0.34 0 0 Z " fill="#C660F0" transform="translate(178,130)"/>
<path d="M0 0 C-0.639375 0.433125 -1.27875 0.86625 -1.9375 1.3125 C-4.26746003 2.91239177 -4.26746003 2.91239177 -5 6 C-6.98 6.33 -8.96 6.66 -11 7 C-11 7.66 -11 8.32 -11 9 C-13.90548882 11.04169485 -15.40142046 12 -19 12 C-18.67 10.68 -18.34 9.36 -18 8 C-17.34 8 -16.68 8 -16 8 C-16 7.34 -16 6.68 -16 6 C-15.01 6 -14.02 6 -13 6 C-12.67 5.01 -12.34 4.02 -12 3 C-9.78515625 1.796875 -9.78515625 1.796875 -7.0625 0.75 C-6.16660156 0.39421875 -5.27070313 0.0384375 -4.34765625 -0.328125 C-2 -1 -2 -1 0 0 Z " fill="#B543F6" transform="translate(165,130)"/>
<path d="M0 0 C0 3 0 3 -1.1875 4.5 C-3 6 -3 6 -5.4375 7.4375 C-8.07393178 8.90704843 -8.07393178 8.90704843 -10.125 11.125 C-12 13 -12 13 -15 14 C-16.42857119 15.40105576 -16.42857119 15.40105576 -17.6875 17.0625 C-18.8321875 18.5165625 -18.8321875 18.5165625 -20 20 C-20 15.05592707 -16.3210276 12.41799191 -13 9 C-4.49142687 0.71984494 -4.49142687 0.71984494 0 0 Z " fill="#B977E1" transform="translate(150,126)"/>
<path d="M0 0 C0.66 0 1.32 0 2 0 C2 0.66 2 1.32 2 2 C2.78375 1.95875 3.5675 1.9175 4.375 1.875 C7 2 7 2 9 4 C9.99 4 10.98 4 12 4 C12 6.31 12 8.62 12 11 C12.66 11 13.32 11 14 11 C14.33 12.65 14.66 14.3 15 16 C1.59433962 4.78301887 1.59433962 4.78301887 0 0 Z " fill="#BD80E6" transform="translate(202,333)"/>
<path d="M0 0 C0.33 0.66 0.66 1.32 1 2 C0.0625 4.125 0.0625 4.125 -1 6 C-1.66 6 -2.32 6 -3 6 C-3 7.32 -3 8.64 -3 10 C-8.22727273 15 -8.22727273 15 -11 15 C-11.2475 15.804375 -11.495 16.60875 -11.75 17.4375 C-13 20 -13 20 -15.125 20.8125 C-15.74375 20.874375 -16.3625 20.93625 -17 21 C-15.85927916 17.57783747 -14.55763777 16.48456241 -12 14 C-10.64613064 12.34997172 -9.31321858 10.6825613 -8 9 C-5.49330386 5.78829557 -2.93395735 2.82917316 0 0 Z " fill="#C686E9" transform="translate(267,140)"/>
<path d="M0 0 C3.8159608 0.48547791 7.57592651 0.45450996 11.41796875 0.42578125 C12.1454834 0.4215918 12.87299805 0.41740234 13.62255859 0.41308594 C15.36689642 0.40061748 17.11119271 0.38254319 18.85546875 0.36328125 C18.85546875 0.69328125 18.85546875 1.02328125 18.85546875 1.36328125 C17.9840625 1.40066406 17.11265625 1.43804687 16.21484375 1.4765625 C5.94111394 2.04361902 -3.46033366 3.8662099 -13.14453125 7.36328125 C-12.91492858 4.14884385 -12.05693358 3.28225341 -9.64453125 1.05078125 C-5.88923473 -0.75980814 -4.030373 -0.68675891 0 0 Z " fill="#BD57EF" transform="translate(173.14453125,128.63671875)"/>
<path d="M0 0 C5.56698072 3.20101392 10.58507371 7.51205613 14 13 C13.72265625 15.78515625 13.72265625 15.78515625 13 18 C9 13.375 9 13.375 9 10 C7.02 10 5.04 10 3 10 C2.67 9.34 2.34 8.68 2 8 C2.66 7.67 3.32 7.34 4 7 C3.01 5.824375 3.01 5.824375 2 4.625 C0 2 0 2 0 0 Z " fill="#EDB3FD" transform="translate(351,142)"/>
<path d="M0 0 C0.99 0.33 1.98 0.66 3 1 C3.33 2.65 3.66 4.3 4 6 C4.66 6 5.32 6 6 6 C6.33 6.66 6.66 7.32 7 8 C8.65 7.01 10.3 6.02 12 5 C11.25 7.9375 11.25 7.9375 10 11 C7.875 11.875 7.875 11.875 6 12 C5.67 11.01 5.34 10.02 5 9 C2.98491642 8.26676204 2.98491642 8.26676204 1 8 C1 7.34 1 6.68 1 6 C0.0409375 5.566875 0.0409375 5.566875 -0.9375 5.125 C-3 4 -3 4 -4 2 C-2.68 2 -1.36 2 0 2 C0 1.34 0 0.68 0 0 Z " fill="#973ED6" transform="translate(237,362)"/>
<path d="M0 0 C2 2 2 2 2.16015625 3.875 C2.12792969 4.57625 2.09570312 5.2775 2.0625 6 C1.90401197 9.11841564 1.90401197 9.11841564 3 12 C3.08308638 13.37548156 3.10736016 14.75485796 3.09765625 16.1328125 C3.09282227 17.34130859 3.09282227 17.34130859 3.08789062 18.57421875 C3.07951172 19.41597656 3.07113281 20.25773437 3.0625 21.125 C3.05798828 21.97449219 3.05347656 22.82398438 3.04882812 23.69921875 C3.03702874 25.79950909 3.01909306 27.8997633 3 30 C2.01 30.33 1.02 30.66 0 31 C0 20.77 0 10.54 0 0 Z " fill="#B046ED" transform="translate(372,174)"/>
<path d="M0 0 C-0.36825187 5.08942973 -3.16460208 7.82127655 -6.5625 11.3125 C-7.34270508 12.13717773 -7.34270508 12.13717773 -8.13867188 12.97851562 C-9.41708817 14.32730346 -10.70739433 15.66480436 -12 17 C-12.33 16.01 -12.66 15.02 -13 14 C-12.195625 13.38125 -11.39125 12.7625 -10.5625 12.125 C-7.96125481 10.25835959 -7.96125481 10.25835959 -7 8 C-7.99 7.67 -8.98 7.34 -10 7 C-10 6.34 -10 5.68 -10 5 C-8.68 5 -7.36 5 -6 5 C-5.67 4.01 -5.34 3.02 -5 2 C-2 0 -2 0 0 0 Z " fill="#B874E4" transform="translate(331,298)"/>
<path d="M0 0 C0.33 0 0.66 0 1 0 C1.23616171 6.63876808 1.02854626 11.94290748 -2 18 C-2.66 18 -3.32 18 -4 18 C-4.33 19.65 -4.66 21.3 -5 23 C-7 20 -7 20 -7 16 C-6.34 16 -5.68 16 -5 16 C-4.67 14.68 -4.34 13.36 -4 12 C-3.34 12.33 -2.68 12.66 -2 13 C-1.93941406 12.39671875 -1.87882812 11.7934375 -1.81640625 11.171875 C-1.69072266 9.97304687 -1.69072266 9.97304687 -1.5625 8.75 C-1.48128906 7.96109375 -1.40007812 7.1721875 -1.31640625 6.359375 C-1.02365007 4.17635361 -0.57935581 2.1226818 0 0 Z " fill="#A63BE4" transform="translate(381,204)"/>
<path d="M0 0 C1.32 0 2.64 0 4 0 C4 1.32 4 2.64 4 4 C4.99 3.67 5.98 3.34 7 3 C9.52588702 5.36292656 10.88820837 6.66462511 12 10 C11.0625 12.1875 11.0625 12.1875 10 14 C8.32731078 12.04653795 6.66178419 10.08770186 5 8.125 C4.28457031 7.29162109 4.28457031 7.29162109 3.5546875 6.44140625 C0 2.2265625 0 2.2265625 0 0 Z " fill="#AF69DF" transform="translate(152,275)"/>
<path d="M0 0 C0.66 0 1.32 0 2 0 C2 0.99 2 1.98 2 3 C4.64 3.33 7.28 3.66 10 4 C8.515 6.475 8.515 6.475 7 9 C7.66 9 8.32 9 9 9 C9 9.66 9 10.32 9 11 C10.32 11 11.64 11 13 11 C13.33 12.98 13.66 14.96 14 17 C13.01 16.67 12.02 16.34 11 16 C11 15.34 11 14.68 11 14 C10.34 14 9.68 14 9 14 C9 13.34 9 12.68 9 12 C8.360625 11.7525 7.72125 11.505 7.0625 11.25 C5 10 5 10 4.25 7.875 C4.12625 6.946875 4.12625 6.946875 4 6 C3.34 6 2.68 6 2 6 C2 5.34 2 4.68 2 4 C1.34 4 0.68 4 0 4 C0 2.68 0 1.36 0 0 Z " fill="#9943D6" transform="translate(163,285)"/>
<path d="M0 0 C-1.09923075 7.47476912 -4.14416041 11.57558786 -10 16 C-9.28280328 10.54683181 -7.0505303 0 0 0 Z " fill="#A14AD9" transform="translate(137,139)"/>
<path d="M0 0 C0.66 0 1.32 0 2 0 C2.84172676 2.35683494 3.10948624 3.6386954 2.375 6.0625 C0.61827099 8.53789088 -1.36094071 9.54851739 -4 11 C-4.66 11.66 -5.32 12.32 -6 13 C-8.125 12.625 -8.125 12.625 -10 12 C-9 10 -9 10 -6.5625 8.625 C-3.87592252 6.92131672 -3.10510897 5.91346909 -2 3 C-1.34 3 -0.68 3 0 3 C0 2.01 0 1.02 0 0 Z " fill="#A457D9" transform="translate(283,345)"/>
<path d="M0 0 C0 3 0 3 -1.93359375 5.19140625 C-2.75988281 5.97386719 -3.58617187 6.75632812 -4.4375 7.5625 C-7.63841178 10.46895693 -7.63841178 10.46895693 -10 14 C-10.66 14 -11.32 14 -12 14 C-12.20625 14.556875 -12.4125 15.11375 -12.625 15.6875 C-14.55000774 18.92501302 -17.03850902 20.68231141 -20 23 C-19.690625 22.401875 -19.38125 21.80375 -19.0625 21.1875 C-17.89790296 18.91043228 -17.89790296 18.91043228 -17 16 C-16.34 16 -15.68 16 -15 16 C-15 15.34 -15 14.68 -15 14 C-13.42578125 12.44921875 -13.42578125 12.44921875 -11.3125 10.6875 C-8.04602181 7.91243888 -4.98511105 5.07290843 -2 2 C-1.34 1.34 -0.68 0.68 0 0 Z " fill="#E0B7F3" transform="translate(317,315)"/>
<path d="M0 0 C0.66 0 1.32 0 2 0 C2 1.98 2 3.96 2 6 C2.66 6 3.32 6 4 6 C4.66 9.63 5.32 13.26 6 17 C6.66 17 7.32 17 8 17 C8.33 19.97 8.66 22.94 9 26 C5.57438245 22.21433256 4.35252021 17.76075383 2.8125 13 C2.53986328 12.19304687 2.26722656 11.38609375 1.98632812 10.5546875 C0.73413331 6.75102808 0 4.07567997 0 0 Z " fill="#D5A1EF" transform="translate(120,210)"/>
<path d="M0 0 C0.87822019 2.45901654 1.19223228 3.56061193 0.125 6 C-0.24625 6.66 -0.6175 7.32 -1 8 C-1.2165625 8.8971875 -1.2165625 8.8971875 -1.4375 9.8125 C-2.26713891 13.03887353 -3.65299834 15.95460495 -5 19 C-6.83517788 15.32964424 -5.62047868 10.95244918 -5 7 C-3.9375 3.875 -3.9375 3.875 -3 2 C-2.01 2 -1.02 2 0 2 C0 1.34 0 0.68 0 0 Z " fill="#A249E0" transform="translate(125,158)"/>
<path d="M0 0 C1.14820544 3.44461631 0.81315918 4.25418522 -0.375 7.5625 C-0.65085937 8.34753906 -0.92671875 9.13257813 -1.2109375 9.94140625 C-2 12 -2 12 -3 14 C-3.99 14 -4.98 14 -6 14 C-6.33 15.65 -6.66 17.3 -7 19 C-7.7109375 17.44921875 -7.7109375 17.44921875 -8 15 C-6.96865675 12.47925882 -5.90461778 10.19835223 -4.625 7.8125 C-4.13 6.85053711 -4.13 6.85053711 -3.625 5.86914062 C-1.19836882 1.19836882 -1.19836882 1.19836882 0 0 Z " fill="#CB92EA" transform="translate(128,146)"/>
<path d="M0 0 C4.95 0.99 4.95 0.99 10 2 C9.67 2.99 9.34 3.98 9 5 C9.66 5.33 10.32 5.66 11 6 C10.01 6.33 9.02 6.66 8 7 C9.65 8.65 11.3 10.3 13 12 C12.01 12.495 12.01 12.495 11 13 C11 12.34 11 11.68 11 11 C10.41734375 10.75378906 9.8346875 10.50757813 9.234375 10.25390625 C6.65287455 8.80519708 5.16155251 7.18806717 3.25 4.9375 C2.63640625 4.22464844 2.0228125 3.51179688 1.390625 2.77734375 C0 1 0 1 0 0 Z " fill="#BC7FE7" transform="translate(226,358)"/>
<path d="M0 0 C1.8125 0.1875 1.8125 0.1875 4 1 C5.03013277 2.64821244 6.03114628 4.31503702 7 6 C7.99 6.33 8.98 6.66 10 7 C10.6875 9.0625 10.6875 9.0625 11 11 C12.32 11.33 13.64 11.66 15 12 C15.33 13.98 15.66 15.96 16 18 C14.88020758 16.88020758 13.76110127 15.75972433 12.64453125 14.63671875 C11.4019315 13.40002209 10.14716167 12.17553706 8.88671875 10.95703125 C8.16097656 10.24933594 7.43523437 9.54164063 6.6875 8.8125 C5.64142578 7.80123047 5.64142578 7.80123047 4.57421875 6.76953125 C3 5 3 5 3 3 C2.34 3 1.68 3 1 3 C0.67 2.01 0.34 1.02 0 0 Z " fill="#CEA0EB" transform="translate(179,308)"/>
<path d="M0 0 C0 2 0 2 -1.5625 3.875 C-4.03439266 6.02998334 -6.45342128 7.43282185 -9.31640625 8.984375 C-11.56525848 10.3409912 -13.25832654 12.04932573 -15 14 C-14.25 7.25 -14.25 7.25 -12 5 C-10.125 4.4375 -10.125 4.4375 -8 4 C-6.88625 3.7215625 -6.88625 3.7215625 -5.75 3.4375 C-5.1725 3.293125 -4.595 3.14875 -4 3 C-4 2.34 -4 1.68 -4 1 C-2 0 -2 0 0 0 Z " fill="#B450EC" transform="translate(158,136)"/>
<path d="M0 0 C2.97 0.495 2.97 0.495 6 1 C5.59007812 1.47050781 5.18015625 1.94101562 4.7578125 2.42578125 C3.94957031 3.35970703 3.94957031 3.35970703 3.125 4.3125 C2.59132813 4.92738281 2.05765625 5.54226563 1.5078125 6.17578125 C-0.1640447 8.13498212 -0.1640447 8.13498212 -2 11 C-2.66 11 -3.32 11 -4 11 C-4 11.66 -4 12.32 -4 13 C-4.66 12.67 -5.32 12.34 -6 12 C-5.67 10.35 -5.34 8.7 -5 7 C-3.35 6.67 -1.7 6.34 0 6 C0 4.02 0 2.04 0 0 Z " fill="#B672E4" transform="translate(291,337)"/>
<path d="M0 0 C2 2 2 2 3 5 C3.99 5.33 4.98 5.66 6 6 C5.95875 6.928125 5.9175 7.85625 5.875 8.8125 C5.72863661 12.15809719 5.72863661 12.15809719 8 15 C7.625 17.1875 7.625 17.1875 7 19 C5 16 5 16 5 13 C4.34 13 3.68 13 3 13 C-0.42857143 4.57142857 -0.42857143 4.57142857 0 0 Z " fill="#9A3CDD" transform="translate(128,227)"/>
<path d="M0 0 C4.63720719 3.27530896 8.68542782 6.30435607 12 11 C10.35 11 8.7 11 7 11 C7 10.34 7 9.68 7 9 C4.525 8.01 4.525 8.01 2 7 C2 6.01 2 5.02 2 4 C1.34 4 0.68 4 0 4 C0 2.68 0 1.36 0 0 Z " fill="#BE74E6" transform="translate(228,133)"/>
<path d="M0 0 C-1.8125 2 -1.8125 2 -4 4 C-4.99 4 -5.98 4 -7 4 C-7 4.66 -7 5.32 -7 6 C-6.01 6.33 -5.02 6.66 -4 7 C-5.65 7.33 -7.3 7.66 -9 8 C-9 7.34 -9 6.68 -9 6 C-9.99 6 -10.98 6 -12 6 C-12 5.01 -12 4.02 -12 3 C-10.3789897 2.30314502 -8.75303934 1.61777139 -7.125 0.9375 C-6.22007812 0.55464844 -5.31515625 0.17179687 -4.3828125 -0.22265625 C-2 -1 -2 -1 0 0 Z " fill="#AC58E2" transform="translate(302,120)"/>
<path d="M0 0 C0.66 0 1.32 0 2 0 C1.53199289 4.05606165 1.12046792 7.46588679 -1 11 C-1.66 11 -2.32 11 -3 11 C-3.66 12.65 -4.32 14.3 -5 16 C-5.33 16 -5.66 16 -6 16 C-6.39600885 11.51189971 -5.18606399 8.88633599 -3 5 C-2.484375 4.05125 -1.96875 3.1025 -1.4375 2.125 C-0.963125 1.42375 -0.48875 0.7225 0 0 Z " fill="#CE7EFB" transform="translate(142,150)"/>
<path d="M0 0 C4.8245905 4.25699162 8.05863995 9.28911194 11 15 C11 15.66 11 16.32 11 17 C10.34 17 9.68 17 9 17 C7 14 7 14 7 11 C4.03 10.505 4.03 10.505 1 10 C1.20625 9.278125 1.4125 8.55625 1.625 7.8125 C2.05952211 4.55358415 1.41680669 2.91695496 0 0 Z " fill="#C98FEA" transform="translate(370,140)"/>
<path d="M0 0 C4.75 1.875 4.75 1.875 7 3 C6.67 4.65 6.34 6.3 6 8 C6.99 8 7.98 8 9 8 C8.67 9.65 8.34 11.3 8 13 C6 11.6875 6 11.6875 4 10 C4 9.01 4 8.02 4 7 C3.525625 6.525625 3.05125 6.05125 2.5625 5.5625 C0.74896408 3.74896408 0.42906705 2.48858887 0 0 Z " fill="#B446F5" transform="translate(352,136)"/>
<path d="M0 0 C1.32 1.32 2.64 2.64 4 4 C4.99 3.67 5.98 3.34 7 3 C6.79375 3.7425 6.5875 4.485 6.375 5.25 C5.95591249 8.32330841 6.38050989 9.42786866 8 12 C7.01 11.67 6.02 11.34 5 11 C5 10.34 5 9.68 5 9 C3.68 8.67 2.36 8.34 1 8 C0.67 6.35 0.34 4.7 0 3 C-0.66 3 -1.32 3 -2 3 C-2 2.34 -2 1.68 -2 1 C-1.34 0.67 -0.68 0.34 0 0 Z " fill="#993CDB" transform="translate(216,341)"/>
<path d="M0 0 C0.27263672 0.95712891 0.27263672 0.95712891 0.55078125 1.93359375 C0.80214844 2.75988281 1.05351562 3.58617187 1.3125 4.4375 C1.55613281 5.26121094 1.79976562 6.08492188 2.05078125 6.93359375 C2.36402344 7.61550781 2.67726562 8.29742187 3 9 C3.99 9.33 4.98 9.66 6 10 C7.25 11.9375 7.25 11.9375 8 14 C7.67 14.66 7.34 15.32 7 16 C6.34 16 5.68 16 5 16 C5 14.68 5 13.36 5 12 C3.68 12 2.36 12 1 12 C0.32591692 10.73308493 -0.33900497 9.46129251 -1 8.1875 C-1.37125 7.47980469 -1.7425 6.77210938 -2.125 6.04296875 C-3 4 -3 4 -3 1 C-1 0 -1 0 0 0 Z " fill="#9841D8" transform="translate(151,263)"/>
<path d="M0 0 C0.66 0 1.32 0 2 0 C2 0.66 2 1.32 2 2 C2.66 2 3.32 2 4 2 C4.9765625 3.79036458 5.953125 5.58072917 6.9296875 7.37109375 C7.91410024 9.16618315 7.91410024 9.16618315 10 10 C11.10546875 11.99609375 11.10546875 11.99609375 12.1875 14.4375 C12.55230469 15.24058594 12.91710937 16.04367187 13.29296875 16.87109375 C14 19 14 19 13 21 C11.01517823 18.06628436 9.03813597 15.12740779 7.0625 12.1875 C6.49853516 11.35412109 5.93457031 10.52074219 5.35351562 9.66210938 C4.81533203 8.85966797 4.27714844 8.05722656 3.72265625 7.23046875 C3.22515869 6.49207764 2.72766113 5.75368652 2.21508789 4.99291992 C1 3 1 3 0 0 Z " fill="#CF97EB" transform="translate(138,254)"/>
<path d="M0 0 C-1.134375 0.28875 -2.26875 0.5775 -3.4375 0.875 C-4.613125 1.24625 -5.78875 1.6175 -7 2 C-7.33 2.66 -7.66 3.32 -8 4 C-9.92578125 4.66796875 -9.92578125 4.66796875 -12.3125 5.1875 C-13.09238281 5.36667969 -13.87226563 5.54585938 -14.67578125 5.73046875 C-17.09204759 6.01067443 -18.70242952 5.74132137 -21 5 C-19.10667466 4.18167278 -17.21022267 3.37057732 -15.3125 2.5625 C-14.25675781 2.11003906 -13.20101562 1.65757813 -12.11328125 1.19140625 C-7.76631963 -0.47211106 -4.49418946 -1.49806315 0 0 Z " fill="#BE7FE7" transform="translate(174,118)"/>
<path d="M0 0 C0.33 0.66 0.66 1.32 1 2 C-0.35697497 4.71394993 -1.75405682 6.76199047 -3.9375 8.875 C-6.63350585 11.652703 -8.16641812 14.59477651 -10 18 C-10.66 18 -11.32 18 -12 18 C-11.67 16.02 -11.34 14.04 -11 12 C-10.34 12 -9.68 12 -9 12 C-8.61714844 11.14148438 -8.61714844 11.14148438 -8.2265625 10.265625 C-6.86912841 7.75826267 -5.28025896 5.8669544 -3.375 3.75 C-2.74335938 3.04359375 -2.11171875 2.3371875 -1.4609375 1.609375 C-0.97882813 1.07828125 -0.49671875 0.5471875 0 0 Z " fill="#D17DFC" transform="translate(274,151)"/>
<path d="M0 0 C0.99 0 1.98 0 3 0 C3 1.32 3 2.64 3 4 C2.34 4 1.68 4 1 4 C0.67 5.32 0.34 6.64 0 8 C-0.66 8 -1.32 8 -2 8 C-2 9.32 -2 10.64 -2 12 C-2.99 12 -3.98 12 -5 12 C-5.33 12.66 -5.66 13.32 -6 14 C-6.66 14 -7.32 14 -8 14 C-7.67 12.68 -7.34 11.36 -7 10 C-5.68 10 -4.36 10 -3 10 C-2.86722656 9.36191406 -2.73445313 8.72382813 -2.59765625 8.06640625 C-2.42105469 7.24011719 -2.24445313 6.41382813 -2.0625 5.5625 C-1.88847656 4.73878906 -1.71445312 3.91507812 -1.53515625 3.06640625 C-1 1 -1 1 0 0 Z " fill="#9D3BDB" transform="translate(354,262)"/>
<path d="M0 0 C1 2 1 2 0.875 4.4375 C-0.28618014 7.83809898 -1.90468587 8.33909973 -5 10 C-5.99 11.485 -5.99 11.485 -7 13 C-7.66 12.67 -8.32 12.34 -9 12 C-6.75216109 6.82620318 -4.83454463 3.22302975 0 0 Z " fill="#E6A4FD" transform="translate(151,142)"/>
<path d="M0 0 C2.97 0.33 5.94 0.66 9 1 C9.33 2.65 9.66 4.3 10 6 C10.99 6.33 11.98 6.66 13 7 C12.34 7.66 11.68 8.32 11 9 C10.45730469 8.57847656 9.91460937 8.15695313 9.35546875 7.72265625 C8.64003906 7.17480469 7.92460937 6.62695312 7.1875 6.0625 C6.47980469 5.51722656 5.77210938 4.97195312 5.04296875 4.41015625 C2.95874948 2.83143752 2.95874948 2.83143752 0 2 C0 1.34 0 0.68 0 0 Z " fill="#C669EB" transform="translate(344,136)"/>
<path d="M0 0 C4.95 0.99 4.95 0.99 10 2 C10.33 3.98 10.66 5.96 11 8 C10.01 8.33 9.02 8.66 8 9 C7.67 7.35 7.34 5.7 7 4 C5.35 4 3.7 4 2 4 C1.34 2.68 0.68 1.36 0 0 Z " fill="#A641E8" transform="translate(208,124)"/>
<path d="M0 0 C0.66 0.33 1.32 0.66 2 1 C1.01 2.485 1.01 2.485 0 4 C-0.66 4 -1.32 4 -2 4 C-2.226875 4.61875 -2.45375 5.2375 -2.6875 5.875 C-4.40554645 8.65659901 -5.90995099 9.09559541 -9 10 C-9.99 10 -10.98 10 -12 10 C-10.56458334 8.70601853 -9.12658648 7.41489889 -7.6875 6.125 C-6.88699219 5.40570313 -6.08648437 4.68640625 -5.26171875 3.9453125 C-3 2 -3 2 0 0 Z " fill="#C286E6" transform="translate(280,129)"/>
<path d="M0 0 C0.99 0 1.98 0 3 0 C3.33 0.66 3.66 1.32 4 2 C4.99 2.33 5.98 2.66 7 3 C7.99 4.485 7.99 4.485 9 6 C9.66 6.33 10.32 6.66 11 7 C10.34 8.32 9.68 9.64 9 11 C7.29115995 9.37660195 5.62553283 7.70680947 4 6 C4 5.34 4 4.68 4 4 C3.34 4 2.68 4 2 4 C2 3.34 2 2.68 2 2 C1.34 2 0.68 2 0 2 C0 1.34 0 0.68 0 0 Z " fill="#BE83E4" transform="translate(239,371)"/>
<path d="M0 0 C2.50715891 2.50715891 3.6820514 3.95449479 5.1875 7 C5.53167969 7.680625 5.87585938 8.36125 6.23046875 9.0625 C7 11 7 11 7 14 C7.99 14.33 8.98 14.66 10 15 C10 15.66 10 16.32 10 17 C6.83884224 15.63016497 6.0072908 15.0109362 4 12 C4 11.01 4 10.02 4 9 C3.34 9 2.68 9 2 9 C1.34 6.03 0.68 3.06 0 0 Z " fill="#973CD9" transform="translate(138,247)"/>
<path d="M0 0 C2.64 0.33 5.28 0.66 8 1 C8 2.32 8 3.64 8 5 C8.66 5 9.32 5 10 5 C9.67 5.66 9.34 6.32 9 7 C7.35 7 5.7 7 4 7 C4 6.01 4 5.02 4 4 C3.01 3.67 2.02 3.34 1 3 C0.67 2.01 0.34 1.02 0 0 Z " fill="#AB45EB" transform="translate(220,132)"/>
<path d="M0 0 C1.258125 -0.04125 2.51625 -0.0825 3.8125 -0.125 C4.52019531 -0.14820313 5.22789062 -0.17140625 5.95703125 -0.1953125 C8 0 8 0 11 2 C11 2.66 11 3.32 11 4 C12.32 4.33 13.64 4.66 15 5 C12.3333581 6.33332095 10.83319697 5.67102033 8 5 C8 4.34 8 3.68 8 3 C7.05125 2.87625 6.1025 2.7525 5.125 2.625 C2 2 2 2 0 0 Z " fill="#F8DAFD" transform="translate(328,133)"/>
<path d="M0 0 C0.33 0.66 0.66 1.32 1 2 C0.07421875 3.98828125 0.07421875 3.98828125 -1.3125 6.3125 C-3.15200563 9.48053748 -4.770616 12.53537237 -6 16 C-6.66 16 -7.32 16 -8 16 C-7.67 13.69 -7.34 11.38 -7 9 C-6.34 9 -5.68 9 -5 9 C-4.5978125 8.1646875 -4.5978125 8.1646875 -4.1875 7.3125 C-2.89877353 4.80287477 -1.47073522 2.40665764 0 0 Z " fill="#C05BF9" transform="translate(262,165)"/>
<path d="M0 0 C3.20815845 -0.08774066 6.41600462 -0.14063706 9.625 -0.1875 C10.52863281 -0.21263672 11.43226563 -0.23777344 12.36328125 -0.26367188 C17.71024149 -0.32221524 21.34014531 0.05082286 26 3 C25.01 3.495 25.01 3.495 24 4 C23.16210938 3.70351562 22.32421875 3.40703125 21.4609375 3.1015625 C17.14002581 1.72628361 13.13078251 1.54747014 8.625 1.375 C7.79355469 1.33632812 6.96210938 1.29765625 6.10546875 1.2578125 C4.07064844 1.16425754 2.03535584 1.08107287 0 1 C0 0.67 0 0.34 0 0 Z " fill="#D07FED" transform="translate(178,130)"/>
<path d="M0 0 C0.6875 1.6875 0.6875 1.6875 1 4 C-0.4375 6.75 -0.4375 6.75 -2 9 C-3.32 8.67 -4.64 8.34 -6 8 C-4.55746343 4.63408134 -2.66735273 2.48952921 0 0 Z " fill="#A051D8" transform="translate(272,358)"/>
<path d="M0 0 C0.66 0 1.32 0 2 0 C2 0.66 2 1.32 2 2 C3.32 1.67 4.64 1.34 6 1 C6.33 2.65 6.66 4.3 7 6 C5.68 6.33 4.36 6.66 3 7 C3 6.34 3 5.68 3 5 C2.34 5 1.68 5 1 5 C0.67 3.35 0.34 1.7 0 0 Z " fill="#9943D8" transform="translate(201,328)"/>
<path d="M0 0 C0 0.66 0 1.32 0 2 C-0.99 2.33 -1.98 2.66 -3 3 C-3.66 3.66 -4.32 4.32 -5 5 C-8.625 4.625 -8.625 4.625 -12 4 C-11.34 3.67 -10.68 3.34 -10 3 C-10 2.34 -10 1.68 -10 1 C-6.56484998 0.37542727 -3.50935186 0 0 0 Z " fill="#E6ACF9" transform="translate(310,131)"/>
<path d="M0 0 C2.97 1.65 5.94 3.3 9 5 C9 5.66 9 6.32 9 7 C6.36 6.67 3.72 6.34 1 6 C0.67 4.02 0.34 2.04 0 0 Z " fill="#B56BE4" transform="translate(218,126)"/>
<path d="M0 0 C0 1.65 0 3.3 0 5 C-2.97 4.505 -2.97 4.505 -6 4 C-6 2.68 -6 1.36 -6 0 C-3.50907189 -1.24546405 -2.58919267 -0.7767578 0 0 Z " fill="#9938DB" transform="translate(232,354)"/>
<path d="M0 0 C0.33 0 0.66 0 1 0 C1.20413361 5.73842251 1.27141454 10.60539047 -1 16 C-1.33 16 -1.66 16 -2 16 C-2.20674944 10.21101581 -1.59162079 5.57067277 0 0 Z " fill="#A448D9" transform="translate(381,204)"/>
<path d="M0 0 C2.97 0.495 2.97 0.495 6 1 C4.60667426 4.36720387 3.0210714 5.9859524 0 8 C-0.98120464 4.94736336 -0.98120464 3.05263664 0 0 Z " fill="#AF45EF" transform="translate(266,152)"/>
<path d="M0 0 C0 3.58784961 -0.88385822 4.70021279 -2.875 7.625 C-3.40867187 8.42164063 -3.94234375 9.21828125 -4.4921875 10.0390625 C-6 12 -6 12 -8 13 C-8 11.68 -8 10.36 -8 9 C-7.34 8.67 -6.68 8.34 -6 8 C-5.71125 7.21625 -5.4225 6.4325 -5.125 5.625 C-3.86499529 2.68498901 -2.66110125 1.68536412 0 0 Z " fill="#A44ADE" transform="translate(272,137)"/>
<path d="M0 0 C0.33 0 0.66 0 1 0 C1.40652968 5.42039575 0.03993514 9.07015675 -2 14 C-2.33 14 -2.66 14 -3 14 C-3.56359649 4.41885965 -3.56359649 4.41885965 0 0 Z " fill="#AD4AE7" transform="translate(135,160)"/>
<path d="M0 0 C0.66 0.33 1.32 0.66 2 1 C-1.3 4.3 -4.6 7.6 -8 11 C-9 9 -9 9 -8.875 7 C-8 5 -8 5 -5.625 3.9375 C-4.75875 3.628125 -3.8925 3.31875 -3 3 C-1.22722741 1.47992158 -1.22722741 1.47992158 0 0 Z " fill="#CF94ED" transform="translate(281,353)"/>
<path d="M0 0 C1.9375 0.375 1.9375 0.375 4 1 C4.33 1.66 4.66 2.32 5 3 C7.02463255 3.65213292 7.02463255 3.65213292 9 4 C9 5.65 9 7.3 9 9 C7.68 8.34 6.36 7.68 5 7 C5 6.34 5 5.68 5 5 C4.34 5 3.68 5 3 5 C3 4.34 3 3.68 3 3 C2.34 3 1.68 3 1 3 C0.67 2.01 0.34 1.02 0 0 Z " fill="#C493E8" transform="translate(217,349)"/>
<path d="M0 0 C2.5625 2.1875 2.5625 2.1875 5 5 C4.8125 7.8125 4.8125 7.8125 4 10 C0.06153846 5.69230769 0.06153846 5.69230769 -0.25 2.1875 C-0.1675 1.465625 -0.085 0.74375 0 0 Z " fill="#DE95FB" transform="translate(360,150)"/>
<path d="M0 0 C1.32 0.99 2.64 1.98 4 3 C3.34 3 2.68 3 2 3 C1.731875 3.61875 1.46375 4.2375 1.1875 4.875 C0 7 0 7 -3 9 C-3.33 7.68 -3.66 6.36 -4 5 C-3.01 5 -2.02 5 -1 5 C-0.67 3.35 -0.34 1.7 0 0 Z " fill="#BC85E4" transform="translate(257,374)"/>
<path d="M0 0 C0.99 0.33 1.98 0.66 3 1 C3 1.66 3 2.32 3 3 C3.99 3 4.98 3 6 3 C8.1875 6 8.1875 6 10 9 C9.01 9.495 9.01 9.495 8 10 C7.5875 9.360625 7.175 8.72125 6.75 8.0625 C4.82189513 5.79009069 3.88575819 5.39803561 1 5 C0.67 3.35 0.34 1.7 0 0 Z " fill="#E298FD" transform="translate(218,142)"/>
<path d="M0 0 C1.32 0 2.64 0 4 0 C4 0.99 4 1.98 4 3 C4.99 3 5.98 3 7 3 C7.66 4.98 8.32 6.96 9 9 C4.56620325 6.78310162 2.53363068 4.22271781 0 0 Z " fill="#B44FEB" transform="translate(226,148)"/>
<path d="M0 0 C3.73487777 0.4979837 5.81237635 0.87491756 9 3 C8.67 3.66 8.34 4.32 8 5 C5.69 4.67 3.38 4.34 1 4 C0.67 2.68 0.34 1.36 0 0 Z " fill="#B367DF" transform="translate(338,119)"/>
<path d="M0 0 C1.32 0.66 2.64 1.32 4 2 C4 3.32 4 4.64 4 6 C2.35 5.67 0.7 5.34 -1 5 C-0.67 3.35 -0.34 1.7 0 0 Z " fill="#AA65DA" transform="translate(250,378)"/>
<path d="M0 0 C1.65 0 3.3 0 5 0 C5.66 2.31 6.32 4.62 7 7 C5.83040013 6.02433888 4.66438823 5.044375 3.5 4.0625 C2.8503125 3.51722656 2.200625 2.97195313 1.53125 2.41015625 C1.0259375 1.94480469 0.520625 1.47945313 0 1 C0 0.67 0 0.34 0 0 Z " fill="#C990E8" transform="translate(195,326)"/>
<path d="M0 0 C0.66 0 1.32 0 2 0 C1.53199289 4.05606165 1.12046792 7.46588679 -1 11 C-1.66 11 -2.32 11 -3 11 C-2.01 7.37 -1.02 3.74 0 0 Z " fill="#D892FC" transform="translate(142,150)"/>
<path d="M0 0 C1.23556641 0.01740234 1.23556641 0.01740234 2.49609375 0.03515625 C3.32238281 0.04417969 4.14867187 0.05320313 5 0.0625 C5.63808594 0.07410156 6.27617187 0.08570313 6.93359375 0.09765625 C3.64895716 2.28741398 0.726631 3.09572188 -3.06640625 4.09765625 C-3.06640625 0.14491523 -3.06640625 0.14491523 0 0 Z " fill="#FAD0FE" transform="translate(170.06640625,132.90234375)"/>
<path d="M0 0 C-0.66 1.32 -1.32 2.64 -2 4 C-4.64 4 -7.28 4 -10 4 C-6.58908673 0.88145073 -4.68377325 -0.53528837 0 0 Z " fill="#B545F6" transform="translate(178,126)"/>
<path d="M0 0 C4.21912747 0.4794463 6.79663178 1.16625119 10 4 C6.05272412 4.17942163 3.4019487 4.09350689 0 2 C0 1.34 0 0.68 0 0 Z " fill="#BB6EE0" transform="translate(208,122)"/>
<path d="M0 0 C0.99 0.33 1.98 0.66 3 1 C2.875 2.8125 2.875 2.8125 2 5 C-1.0625 6.75 -1.0625 6.75 -4 8 C-4 7.01 -4 6.02 -4 5 C-3.01 4.34 -2.02 3.68 -1 3 C-0.67 2.01 -0.34 1.02 0 0 Z " fill="#993ADE" transform="translate(331,292)"/>
<path d="M0 0 C3.09423168 3.09423168 3.93706005 6.5523812 4.125 10.875 C4.08375 11.57625 4.0425 12.2775 4 13 C0.25474201 9.25474201 0.31090051 5.01729091 0 0 Z " fill="#9B49D5" transform="translate(128,227)"/>
<path d="M0 0 C0.33 0.66 0.66 1.32 1 2 C1.66 2 2.32 2 3 2 C3.33 5.3 3.66 8.6 4 12 C2 11 2 11 0.875 7.6875 C0 4 0 4 0 0 Z " fill="#CA78F9" transform="translate(366,160)"/>
<path d="M0 0 C0.66 0 1.32 0 2 0 C1.58578031 4.83256305 -0.46413986 6.82679218 -4 10 C-3.42415568 7.61435923 -2.77772405 5.33317216 -2 3 C-1.34 3 -0.68 3 0 3 C0 2.01 0 1.02 0 0 Z " fill="#AA45E5" transform="translate(140,149)"/>
<path d="M0 0 C2.64 1.98 5.28 3.96 8 6 C7.01 6.33 6.02 6.66 5 7 C4.34 6.67 3.68 6.34 3 6 C3 5.34 3 4.68 3 4 C2.01 4 1.02 4 0 4 C0 2.68 0 1.36 0 0 Z " fill="#CC8EEC" transform="translate(228,133)"/>
<path d="M0 0 C-1.75 2.0625 -1.75 2.0625 -4 4 C-6.25 3.75 -6.25 3.75 -8 3 C-6.14481495 -0.71037009 -3.79223618 -1.26407873 0 0 Z " fill="#9843D7" transform="translate(281,354)"/>
<path d="M0 0 C0.66 0 1.32 0 2 0 C1.82374165 2.37948772 1.30280227 3.70225849 -0.40234375 5.37890625 C-1.90649092 6.62115486 -3.45129851 7.81376056 -5 9 C-4.690625 8.401875 -4.38125 7.80375 -4.0625 7.1875 C-2.89790296 4.91043228 -2.89790296 4.91043228 -2 2 C-1.34 2 -0.68 2 0 2 C0 1.34 0 0.68 0 0 Z " fill="#CD9DE9" transform="translate(302,329)"/>
<path d="M0 0 C0 2 0 2 -1.75 4.0625 C-3.9670446 5.97162174 -5.158832 6.59411886 -8 7 C-8 6.01 -8 5.02 -8 4 C-6.68 3.67 -5.36 3.34 -4 3 C-4 2.34 -4 1.68 -4 1 C-2 0 -2 0 0 0 Z " fill="#C062EA" transform="translate(158,136)"/>
<path d="M0 0 C1.62463842 -0.05395478 3.24978541 -0.09277195 4.875 -0.125 C5.77992188 -0.14820313 6.68484375 -0.17140625 7.6171875 -0.1953125 C10 0 10 0 12 2 C8.25 3.125 8.25 3.125 6 2 C4.00448218 1.64080679 2.00451121 1.30503431 0 1 C0 0.67 0 0.34 0 0 Z " fill="#F8C8FE" transform="translate(192,133)"/>
<path d="M0 0 C1.32 0.33 2.64 0.66 4 1 C4.12375 1.639375 4.2475 2.27875 4.375 2.9375 C4.684375 3.9584375 4.684375 3.9584375 5 5 C5.66 5.33 6.32 5.66 7 6 C5.68 5.67 4.36 5.34 3 5 C3 4.34 3 3.68 3 3 C1.35 3 -0.3 3 -2 3 C-1.34 2.67 -0.68 2.34 0 2 C0 1.34 0 0.68 0 0 Z " fill="#A040D9" transform="translate(359,132)"/>
<path d="M0 0 C0.99 0 1.98 0 3 0 C3 2.31 3 4.62 3 7 C2.34 7 1.68 7 1 7 C0.67 4.69 0.34 2.38 0 0 Z " fill="#9A37DC" transform="translate(288,336)"/>
<path d="M0 0 C0.99 0 1.98 0 3 0 C3.66 1.98 4.32 3.96 5 6 C3.68 6 2.36 6 1 6 C0.67 4.02 0.34 2.04 0 0 Z " fill="#9C47D8" transform="translate(194,320)"/>
<path d="M0 0 C1.32 0 2.64 0 4 0 C4.66 2.64 5.32 5.28 6 8 C1.125 3.375 1.125 3.375 0 0 Z " fill="#CE9EEA" transform="translate(152,275)"/>
<path d="M0 0 C0.66 1.32 1.32 2.64 2 4 C-2.75 8.875 -2.75 8.875 -5 10 C-4.6875 7.625 -4.6875 7.625 -4 5 C-3.01 4.34 -2.02 3.68 -1 3 C-0.67 2.01 -0.34 1.02 0 0 Z " fill="#A13CE3" transform="translate(132,145)"/>
<path d="M0 0 C0.33 0.66 0.66 1.32 1 2 C0.67 2.99 0.34 3.98 0 5 C-3.5625 6.1875 -3.5625 6.1875 -7 7 C-6.67 6.34 -6.34 5.68 -6 5 C-5.34 5 -4.68 5 -4 5 C-4 4.34 -4 3.68 -4 3 C-3.34 3 -2.68 3 -2 3 C-2 2.34 -2 1.68 -2 1 C-1.34 0.67 -0.68 0.34 0 0 Z " fill="#E298FA" transform="translate(284,142)"/>
<path d="M0 0 C2.475 0.495 2.475 0.495 5 1 C5 2.32 5 3.64 5 5 C3.68 4.67 2.36 4.34 1 4 C0.67 2.68 0.34 1.36 0 0 Z " fill="#B157E2" transform="translate(202,119)"/>
<path d="M0 0 C0.33 0.66 0.66 1.32 1 2 C-0.4375 4.625 -0.4375 4.625 -2 7 C-2.66 6.67 -3.32 6.34 -4 6 C-3.6875 4.125 -3.6875 4.125 -3 2 C-2.01 1.34 -1.02 0.68 0 0 Z " fill="#9931E4" transform="translate(248,367)"/>
<path d="M0 0 C0.66 0 1.32 0 2 0 C1.47731534 2.76276177 0.89130413 5.3260876 0 8 C-0.66 8 -1.32 8 -2 8 C-1.125 2.25 -1.125 2.25 0 0 Z " fill="#A855D4" transform="translate(377,222)"/>
<path d="M0 0 C2.62187494 1.04874998 3.79371361 1.64931313 5.25 4.125 C5.4975 4.74375 5.745 5.3625 6 6 C5.01 6.495 5.01 6.495 4 7 C4 6.01 4 5.02 4 4 C2.68 4 1.36 4 0 4 C0 2.68 0 1.36 0 0 Z " fill="#D382FC" transform="translate(230,154)"/>
<path d="M0 0 C0.66 0 1.32 0 2 0 C3.42944945 2.35438733 4.08661261 3.48032433 3.625 6.25 C3.41875 6.8275 3.2125 7.405 3 8 C2.34 7.67 1.68 7.34 1 7 C0.59270772 4.67843403 0.25561323 2.3431213 0 0 Z " fill="#9D43D5" transform="translate(375,151)"/>
<path d="M0 0 C1 2 1 2 0.375 4.0625 C-1 6 -1 6 -3.625 6.75 C-4.800625 6.87375 -4.800625 6.87375 -6 7 C-4.02 4.69 -2.04 2.38 0 0 Z " fill="#D5A2EC" transform="translate(267,140)"/>
<path d="M0 0 C0.99 0.33 1.98 0.66 3 1 C1.02 3.31 -0.96 5.62 -3 8 C-3.33 7.34 -3.66 6.68 -4 6 C-3.0625 3.875 -3.0625 3.875 -2 2 C-1.34 2 -0.68 2 0 2 C0 1.34 0 0.68 0 0 Z " fill="#F3BFFE" transform="translate(154,140)"/>
<path d="M0 0 C0.66 0 1.32 0 2 0 C2.33 1.65 2.66 3.3 3 5 C3.99 5.33 4.98 5.66 6 6 C5.34 6.66 4.68 7.32 4 8 C1 6 1 6 0.3125 2.875 C0.209375 1.92625 0.10625 0.9775 0 0 Z " fill="#BE58F0" transform="translate(351,137)"/>
<path d="M0 0 C0.33 0 0.66 0 1 0 C1 1.98 1 3.96 1 6 C-0.98 6.99 -0.98 6.99 -3 8 C-2.45276317 4.62537285 -1.9451 2.91765 0 0 Z " fill="#A43CDF" transform="translate(374,228)"/>
<path d="M0 0 C0 4.38968456 -2.12805101 5.76905739 -5 9 C-5 4.61031544 -2.87194899 3.23094261 0 0 Z " fill="#E2B7F5" transform="translate(135,137)"/>
<path d="M0 0 C0.33 0.99 0.66 1.98 1 3 C-1.31 4.65 -3.62 6.3 -6 8 C-4.73058503 4.08597051 -3.48832306 2.20927127 0 0 Z " fill="#A23AE2" transform="translate(143,133)"/>
</svg>
